<svg width="223" height="128" viewBox="0 0 223 128" fill="none" xmlns="http://www.w3.org/2000/svg">
<path d="M210.412 113.836C210.351 115.336 209.963 116.803 209.275 118.137C209.248 118.203 209.216 118.268 209.18 118.33C207.972 120.498 206.284 122.361 204.243 123.775L204.17 123.825C202.329 125.057 200.257 125.905 198.079 126.317C198.079 126.337 198.079 126.317 198.079 126.317H221.257C221.257 126.317 218.156 82.0975 189.659 60.5827C162.08 39.7642 136.26 49.7978 134.622 50.469C135.129 51.9017 135.356 53.4187 135.29 54.9373C135.29 54.9373 137.364 56.0168 137.71 59.8814C138.056 63.7461 138.777 74.491 131.842 76.5147C131.842 76.5147 125.615 76.3619 123.969 73.9725C122.324 71.5831 121.928 72.069 121.282 72.6751C120.781 73.1334 117.758 74.7715 116.363 75.5229C116.539 75.5314 116.714 75.5557 116.886 75.5955C116.886 75.5955 117.685 82.338 127.461 92.9051C127.792 93.2539 128.105 93.6201 128.398 94.0021C129.874 95.2927 131.533 96.6102 133.374 97.9544L144.53 106.117C144.782 106.331 145.08 106.483 145.402 106.56C146.026 106.718 146.678 106.724 147.305 106.578C148.603 106.327 157.461 105.423 163.195 104.852C163.325 104.852 163.463 104.827 163.59 104.812L164.342 104.739C164.462 104.739 164.592 104.714 164.697 104.707L165.374 104.642C165.704 104.609 166.002 104.577 166.278 104.554L167.029 104.481C167.693 104.416 168.086 104.376 168.119 104.376C169.484 104.337 170.846 104.205 172.194 103.981C173.484 103.73 174.661 103.327 174.966 102.658C175.024 102.517 175.046 102.364 175.029 102.212C174.96 101.787 174.782 101.386 174.513 101.05C173.336 99.4697 170.601 98.1147 170.4 98.017C170.395 98.015 170.389 98.015 170.383 98.017L170.328 97.9769L154.048 85.3285H154.03C154.03 85.3285 156.482 59.1701 178.826 65.607C178.826 65.607 178.931 65.6797 179.124 65.84C179.996 66.5112 182.738 68.7353 186.771 72.8905C186.876 73.0032 186.989 73.1159 187.101 73.2361C187.53 73.6719 187.95 74.1253 188.369 74.5686C191.199 77.5942 194.548 81.4488 198.242 86.2552L198.267 86.2803C202.5 91.7905 205.55 96.8398 207.534 101.308V101.323C209.681 106.18 210.585 110.34 210.407 113.658C210.413 113.718 210.414 113.777 210.412 113.836ZM143.02 68.8756C142.359 61.254 146.068 58.4939 146.276 58.3411C141.001 67.8837 150.784 82.5108 151.127 83.0769C150.847 82.8414 143.681 76.4947 143.02 68.8756Z" fill="#6F7585"/>
<path d="M129.009 67.3802C128.735 67.5821 128.449 67.7677 128.153 67.9362L126.434 64.9307C130.397 62.9044 131.509 59.3328 129.766 57.3717C129.278 56.8352 128.65 56.4465 127.952 56.2496C126.199 55.7186 124.984 56.5001 124.16 57.5495C123.488 58.4617 122.994 59.4936 122.707 60.5901L121.871 50.9423L121.806 50.1909C121.806 50.1909 119.982 49.2867 115.043 50.0932C110.104 50.8997 109.195 53.6273 107.074 52.4175C104.952 51.2078 103.75 51.3055 103.75 51.3055C103.146 53.5221 101.531 53.5221 101.531 53.5221C101.148 53.476 100.772 53.3843 100.411 53.2491C98.1194 51.1427 97.4983 47.4884 97.4983 47.4884C99.9027 47.1903 100.088 44.8761 99.8126 42.98C101.145 43.7715 103.024 43.8266 105.661 42.1335C113.227 37.2945 120.987 39.9144 123.714 40.3176C124.932 40.4954 126.264 40.0672 127.369 39.5662C127.511 39.822 127.71 40.0419 127.95 40.2099C129.791 41.4925 131.309 43.1849 132.385 45.1541C139.486 58.4261 131.702 65.4742 129.009 67.3802Z" fill="#AB99E6"/>
<path d="M100.664 126.322H103.52C104.741 126.321 105.912 125.835 106.775 124.971C107.638 124.108 108.124 122.937 108.126 121.716V118.52C108.126 118.229 108.068 117.94 107.957 117.671C107.845 117.402 107.682 117.157 107.475 116.951C107.269 116.746 107.025 116.583 106.756 116.471C106.486 116.36 106.198 116.303 105.907 116.303H88.8299C88.8304 116.984 88.6969 117.657 88.4369 118.286C88.1767 118.914 87.7952 119.485 87.3141 119.966C86.833 120.447 86.2617 120.828 85.633 121.088C85.0043 121.348 84.3306 121.481 83.6503 121.48H21.9436C21.9441 122.764 22.4545 123.995 23.3622 124.903C24.2702 125.811 25.5012 126.321 26.7851 126.322H110.44C110.549 126.322 110.657 126.301 110.759 126.259C110.859 126.217 110.951 126.156 111.028 126.079C111.106 126.002 111.167 125.91 111.209 125.809C111.25 125.708 111.272 125.599 111.271 125.49V120.303C111.271 119.295 111.672 118.329 112.384 117.616C113.097 116.904 114.063 116.504 115.071 116.504C116.079 116.504 117.045 116.904 117.758 117.616C118.47 118.329 118.871 119.295 118.871 120.303V125.49C118.87 125.599 118.891 125.707 118.933 125.808C118.974 125.909 119.035 126.001 119.112 126.078C119.189 126.155 119.281 126.217 119.382 126.258C119.482 126.3 119.59 126.322 119.7 126.322H221.258C221.258 126.322 218.157 82.0925 189.659 60.5802C162.08 39.7616 136.26 49.7952 134.622 50.4664L134.542 50.4965" stroke="#36393F" stroke-width="2" stroke-miterlimit="10"/>
<path d="M106.067 61.2915C106.066 61.5695 105.983 61.8413 105.827 62.072C105.672 62.3027 105.452 62.4825 105.195 62.5882C104.938 62.6941 104.655 62.7214 104.383 62.6666C104.11 62.612 103.859 62.4777 103.663 62.2811C103.467 62.0842 103.333 61.8335 103.279 61.5608C103.225 61.288 103.252 61.0055 103.359 60.7485C103.465 60.4916 103.645 60.2719 103.876 60.1171C104.107 59.9623 104.379 59.8794 104.657 59.8789C104.766 59.8794 104.874 59.8929 104.98 59.919C104.834 59.9651 104.707 60.0565 104.617 60.18C104.527 60.3034 104.478 60.4525 104.479 60.6053C104.478 60.7012 104.497 60.7964 104.533 60.8853C104.569 60.9739 104.622 61.0548 104.69 61.123C104.757 61.1911 104.838 61.2454 104.926 61.2825C105.015 61.3196 105.11 61.3389 105.205 61.3391C105.381 61.3356 105.549 61.271 105.682 61.156C105.815 61.0413 105.903 60.8835 105.932 60.7104C106.018 60.8923 106.064 61.0904 106.067 61.2915Z" fill="black"/>
<path d="M115.838 61.6847C115.838 61.9642 115.756 62.2377 115.601 62.4704C115.446 62.7028 115.226 62.8844 114.968 62.9916C114.709 63.099 114.425 63.1273 114.151 63.073C113.877 63.0189 113.625 62.8844 113.427 62.687C113.229 62.4897 113.095 62.2379 113.04 61.9637C112.985 61.6897 113.013 61.4054 113.12 61.1472C113.227 60.8889 113.408 60.6683 113.64 60.513C113.873 60.3575 114.146 60.2746 114.425 60.2746C114.493 60.2741 114.56 60.2818 114.626 60.2971C114.501 60.3547 114.395 60.4469 114.321 60.5628C114.247 60.6786 114.207 60.8133 114.207 60.9508C114.199 61.1434 114.267 61.3318 114.397 61.474C114.527 61.6163 114.708 61.7012 114.901 61.7097C115.094 61.7185 115.282 61.6501 115.424 61.5201C115.567 61.3899 115.651 61.2085 115.66 61.0159C115.776 61.2201 115.837 61.4502 115.838 61.6847Z" fill="black"/>
<path d="M127.106 37.5825C126.943 38.6796 127.146 39.6413 127.953 40.2124C129.794 41.495 131.312 43.1874 132.388 45.1565C140.859 60.9833 128.153 67.9487 128.153 67.9487L126.435 64.9432C131.382 62.4185 131.888 57.4743 127.953 56.2621C124.018 55.0498 122.708 60.6026 122.708 60.6026L121.806 50.1959C121.806 50.1959 119.983 49.2917 115.044 50.0982C110.105 50.9047 109.196 53.6322 107.074 52.4225C104.953 51.2127 103.75 51.3104 103.75 51.3104C103.147 53.527 101.531 53.527 101.531 53.527C96.7976 52.9234 95.6855 46.3738 95.6855 46.3738C98.0875 46.0732 98.2728 43.7589 97.9998 41.8654C99.3298 42.6569 101.211 42.7145 103.848 41.0189C111.415 36.1799 119.174 38.8023 121.899 39.2055C123.783 39.4785 125.944 38.3264 127.106 37.5825Z" stroke="#36393F" stroke-width="2" stroke-linecap="round" stroke-linejoin="round"/>
<path d="M131.474 116.068L133.345 115.317L134.748 119.101L134.527 125.969L132.631 126.312L125.435 126.001C125.435 126.001 125.936 121.814 127.467 119.822C128.997 117.831 131.474 116.068 131.474 116.068Z" fill="#AB99E6"/>
<path d="M98.7102 55.8414C98.7102 55.8414 100.626 52.4025 104.659 52.7607" stroke="#36393F" stroke-width="2" stroke-miterlimit="10"/>
<path d="M112.556 52.7606C112.556 52.7606 117.165 51.7262 118.778 54.2885" stroke="#36393F" stroke-width="2" stroke-miterlimit="10"/>
<path d="M119.698 68.3296C119.698 68.3296 116.943 66.7341 114.926 69.4166" stroke="#36393F" stroke-width="2" stroke-miterlimit="10"/>
<path d="M102.287 53.3116C102.287 53.3116 100.326 76.3818 114.95 75.9561C117.455 75.8834 119.945 74.2379 122.324 71.5905" stroke="#36393F" stroke-width="2" stroke-miterlimit="10"/>
<path d="M128.153 73.6894L122.325 71.5905C122.325 71.5905 123.77 76.209 130.928 76.5622C138.086 76.9153 140.488 60.4874 135.229 53.8777" stroke="#36393F" stroke-width="2" stroke-linejoin="round"/>
<path d="M150.939 119.97C150.939 119.97 145.597 124.306 149.226 126.322" stroke="#36393F" stroke-width="2" stroke-miterlimit="10"/>
<path d="M146.808 115.935C146.808 115.935 137.54 121.18 145.498 126.322" stroke="#36393F" stroke-width="2" stroke-miterlimit="10"/>
<path d="M143.682 111.903C143.682 111.903 131.382 117.663 140.86 126.322" stroke="#36393F" stroke-width="2" stroke-miterlimit="10"/>
<path d="M195.408 126.322C195.408 126.322 210.33 126.322 210.53 111.903C210.731 97.4835 181.594 61.2764 162.74 56.2396C143.885 51.2028 143.076 65.0058 143.076 65.5719C143.076 66.1379 141.969 72.0839 146.808 78.4282C150.544 83.3323 167.05 95.5749 174.374 100.895C174.643 101.091 174.846 101.363 174.956 101.677C175.066 101.991 175.078 102.331 174.99 102.652C174.902 102.973 174.719 103.259 174.464 103.474C174.21 103.687 173.896 103.819 173.565 103.85L141.175 106.961H141.155C140.849 107.016 129.418 109.125 125.936 112.707C125.936 112.707 123.985 114.152 124.995 116.371C126.004 118.59 129.105 117.859 129.19 117.776" stroke="#36393F" stroke-width="2" stroke-miterlimit="10"/>
<path opacity="0.26" d="M114.428 64.3046C116.655 64.3046 118.46 62.4992 118.46 60.2721C118.46 58.045 116.655 56.2396 114.428 56.2396C112.2 56.2396 110.395 58.045 110.395 60.2721C110.395 62.4992 112.2 64.3046 114.428 64.3046Z" fill="white"/>
<path opacity="0.26" d="M104.193 63.9064C106.42 63.9064 108.226 62.101 108.226 59.8739C108.226 57.6468 106.42 55.8414 104.193 55.8414C101.966 55.8414 100.161 57.6468 100.161 59.8739C100.161 62.101 101.966 63.9064 104.193 63.9064Z" fill="white"/>
<path d="M139.05 115.432C137.633 115.036 135.316 114.68 132.929 115.447C131.762 115.823 130.685 116.436 129.766 117.248C129.565 117.423 129.372 117.601 129.187 117.778C128.788 118.17 128.41 118.584 128.057 119.018C128.011 119.076 127.945 119.114 127.872 119.126C126.983 119.249 121.13 120.175 121.16 123.133C121.187 125.791 124.098 126.227 125.099 126.297C125.141 126.301 125.182 126.296 125.222 126.283C125.261 126.269 125.297 126.248 125.328 126.221C125.359 126.193 125.384 126.159 125.401 126.121C125.418 126.084 125.427 126.043 125.428 126.001C125.428 125.054 125.643 122.086 127.985 119.101" stroke="#36393F" stroke-width="2" stroke-miterlimit="10"/>
<path d="M86.3127 94.5555C86.999 100.088 82.6985 102.59 77.9973 102.961" stroke="#36393F" stroke-width="2" stroke-miterlimit="10"/>
<path d="M71.1646 101.806C69.3721 100.838 67.9201 99.3424 67.0054 97.522C66.0905 95.7014 65.7571 93.6438 66.0502 91.6276C66.8016 86.3052 71.3099 82.2227 75.7231 79.6329C84.9902 74.1953 105.874 78.1301 109.383 78.9316C112.073 79.5477 114.322 77.4438 115.234 76.4269C115.273 76.3839 115.323 76.3526 115.378 76.3373C115.434 76.3218 115.493 76.3228 115.549 76.3398C115.604 76.3571 115.653 76.3896 115.691 76.434C115.728 76.4783 115.752 76.5321 115.76 76.5898C117.686 87.8606 140.055 103.159 145.229 106.583" stroke="#36393F" stroke-width="2" stroke-miterlimit="10"/>
<path d="M91.9557 90.7285L84.5495 95.3245C84.1082 95.5993 83.614 95.7786 83.0993 95.8507C82.5844 95.9229 82.0602 95.8863 81.5602 95.7433C81.0603 95.6 80.596 95.3538 80.1972 95.0204C79.7982 94.6868 79.4739 94.2733 79.2447 93.8067C78.8317 92.9684 78.7498 92.0054 79.0153 91.1094C79.2808 90.2135 79.8744 89.4504 80.6774 88.9727L91.9482 82.2578" stroke="#36393F" stroke-width="2" stroke-miterlimit="10"/>
<path d="M114.428 64.3046C116.655 64.3046 118.46 62.4992 118.46 60.2721C118.46 58.045 116.655 56.2396 114.428 56.2396C112.2 56.2396 110.395 58.045 110.395 60.2721C110.395 62.4992 112.2 64.3046 114.428 64.3046Z" stroke="#36393F" stroke-width="2" stroke-miterlimit="10"/>
<path d="M104.194 63.3026C106.087 63.3026 107.622 61.7675 107.622 59.8738C107.622 57.98 106.087 56.4449 104.194 56.4449C102.3 56.4449 100.765 57.98 100.765 59.8738C100.765 61.7675 102.3 63.3026 104.194 63.3026Z" stroke="white" stroke-width="2" stroke-miterlimit="10"/>
<path d="M104.193 63.9064C106.42 63.9064 108.226 62.101 108.226 59.8739C108.226 57.6468 106.42 55.8414 104.193 55.8414C101.966 55.8414 100.161 57.6468 100.161 59.8739C100.161 62.101 101.966 63.9064 104.193 63.9064Z" stroke="#36393F" stroke-width="2" stroke-miterlimit="10"/>
<path d="M110.415 59.8738H108.226" stroke="#36393F" stroke-width="2" stroke-miterlimit="10"/>
<path d="M110.415 65.5718H108.972C108.882 65.5718 108.792 65.552 108.71 65.5135C108.628 65.4749 108.555 65.4185 108.497 65.3487C108.439 65.2788 108.398 65.1971 108.375 65.1092C108.352 65.0213 108.349 64.9296 108.366 64.8405L109.321 59.8738" stroke="#36393F" stroke-width="2" stroke-miterlimit="10"/>
<path d="M81.469 79.3348C81.469 79.3348 76.327 80.4444 74.5136 88.2088C73.4116 92.9225 71.8988 98.9361 70.8819 102.934C70.7514 103.446 70.7399 103.982 70.8479 104.5C70.9561 105.018 71.181 105.504 71.5058 105.922C71.8304 106.34 72.2464 106.678 72.7216 106.91C73.197 107.143 73.7189 107.264 74.2482 107.264C75.0381 107.264 75.8045 106.995 76.4212 106.501C77.0376 106.007 77.4674 105.317 77.6394 104.546L79.7909 94.8936" stroke="#36393F" stroke-width="2" stroke-miterlimit="10"/>
<path d="M86.1694 97.4835C86.1694 97.4835 91.5669 94.2575 102.199 97.4835C112.831 100.709 125.054 102.898 129.086 94.3427" stroke="#36393F" stroke-width="2" stroke-miterlimit="10"/>
<path d="M132.932 115.447C132.932 115.447 136.689 119.735 134.405 126.322" stroke="#36393F" stroke-width="2" stroke-miterlimit="10"/>
<path d="M8.78488 62.1255H68.1447C70.0568 62.123 71.914 62.7639 73.4172 63.9451C74.9205 65.1266 75.9827 66.7794 76.4326 68.6375L85.8826 107.775C86.1375 108.831 86.1496 109.931 85.9179 110.992C85.6862 112.054 85.2166 113.049 84.5446 113.903C83.8723 114.756 83.0155 115.446 82.0382 115.921C81.0609 116.395 79.9887 116.641 78.9021 116.641H19.695C17.7868 116.643 15.9331 116.004 14.4316 114.826C12.9301 113.649 11.8677 112.001 11.4147 110.147L1.81197 71.017C1.55267 69.9597 1.53707 68.8575 1.76637 67.7935C1.99567 66.7295 2.46386 65.7314 3.13555 64.8751C3.80722 64.0185 4.66483 63.326 5.64354 62.8496C6.62223 62.3732 7.69642 62.1257 8.78488 62.1255Z" fill="#AB99E6"/>
<path d="M41.0041 76.2016C38.459 76.8077 36.151 78.155 34.3716 80.0728C32.5924 81.9908 31.4219 84.3931 31.008 86.9764C30.5942 89.5597 30.9556 92.2075 32.0468 94.5853C33.1378 96.9629 34.9095 98.9637 37.1378 100.335C39.3662 101.705 41.951 102.385 44.5651 102.286C47.1795 102.188 49.7059 101.317 51.8251 99.7826C53.9441 98.2483 55.5608 96.1202 56.4702 93.6675C57.3798 91.2145 57.5416 88.5468 56.9351 86.002C56.5325 84.3124 55.8015 82.7186 54.783 81.3117C53.7644 79.9045 52.4789 78.7119 50.9996 77.8018C49.5201 76.8918 47.8759 76.2822 46.1609 76.0076C44.4457 75.7329 42.6936 75.7988 41.0041 76.2016ZM46.3951 98.8288C45.9024 98.931 45.3893 98.8374 44.9648 98.5674C44.5404 98.2977 44.2376 97.8729 44.121 97.3835C44.0045 96.8941 44.0831 96.3787 44.3405 95.9464C44.5979 95.514 45.0136 95.1991 45.4995 95.0684C45.7493 95.0011 46.01 94.9848 46.266 95.0201C46.5224 95.0554 46.769 95.1418 46.9911 95.2741C47.2133 95.4064 47.4068 95.5822 47.56 95.7905C47.7131 95.9991 47.8229 96.2359 47.8829 96.4876C47.9429 96.7393 47.9516 97.0003 47.9089 97.2555C47.8661 97.5104 47.7727 97.7543 47.6338 97.9727C47.4952 98.191 47.3141 98.3792 47.1012 98.5264C46.8884 98.6733 46.6483 98.7763 46.3951 98.8288ZM45.3197 83.7918C45.5883 86.6763 45.9496 89.6866 45.7727 92.5912C45.7317 93.2916 44.5037 93.5842 44.1509 92.9781C43.0789 91.0803 42.1361 89.1125 41.3287 87.088C40.7102 85.626 39.2279 83.3641 39.7258 81.6768C40.164 80.1716 42.2363 79.513 43.6357 79.9082C45.3283 80.4002 45.1711 82.3621 45.3197 83.7918Z" fill="white" fill-opacity="0.5"/>
<path fill-rule="evenodd" clip-rule="evenodd" d="M73.0432 64.4207C71.6467 63.3235 69.9214 62.728 68.1452 62.7304L8.78466 62.7304C7.78784 62.7306 6.80404 62.9573 5.90791 63.3935C5.0116 63.8297 4.22624 64.4639 3.61117 65.2483C2.9961 66.0325 2.56729 66.9466 2.3573 67.9209C2.14732 68.8952 2.1616 69.9046 2.39905 70.8728L12.002 110.003C12.4227 111.725 13.4097 113.256 14.8045 114.35C16.1993 115.444 17.9214 116.038 19.6941 116.037H78.9018C79.8968 116.037 80.8787 115.811 81.7737 115.376C82.6686 114.942 83.4533 114.31 84.069 113.528C84.6844 112.747 85.1144 111.835 85.3266 110.863C85.5387 109.892 85.5277 108.884 85.2942 107.917L75.8443 68.7799M68.144 61.5206C70.1917 61.518 72.1806 62.2045 73.7906 63.4695C75.4006 64.7348 76.5383 66.505 77.0201 68.4952L86.4702 107.633C86.7466 108.778 86.7597 109.971 86.5085 111.121C86.2573 112.272 85.7481 113.351 85.0195 114.277C84.2907 115.202 83.3617 115.95 82.302 116.465C81.2423 116.979 80.0798 117.246 78.9018 117.246H19.6952C17.6514 117.248 15.6661 116.564 14.0579 115.302C12.4498 114.041 11.3119 112.276 10.8268 110.29L1.22417 71.1611C0.943031 70.0149 0.92609 68.8197 1.17471 67.6661C1.42331 66.5125 1.45701 66.1 2.52891 64.6M68.144 61.5206H8.78452C7.60446 61.5209 6.43964 61.7892 5.37845 62.3057C4.31737 62.8222 3.6008 63.1 2.52891 64.6" fill="#36393F"/>
<path d="M85.3266 110.863C85.1144 111.835 84.6844 112.747 84.069 113.528C83.4533 114.31 82.6686 114.942 81.7737 115.376C80.8787 115.811 79.8968 116.037 78.9018 116.037H19.6941C17.9214 116.038 16.1993 115.444 14.8045 114.35C13.4097 113.256 12.4227 111.725 12.002 110.003L2.39905 70.8728C2.1616 69.9046 2.14732 68.8952 2.3573 67.9209C2.56729 66.9466 2.9961 66.0325 3.61117 65.2483C4.22624 64.4639 5.0116 63.8297 5.90791 63.3935C6.80404 62.9573 7.78784 62.7306 8.78466 62.7304L68.1452 62.7304C69.9214 62.728 71.6467 63.3235 73.0432 64.4207L75.8443 68.7799L85.2942 107.917C85.5277 108.884 85.5387 109.892 85.3266 110.863ZM85.3266 110.863L85.9175 110.992M14.0579 115.302C15.6661 116.564 17.6514 117.248 19.6952 117.246H78.9018C80.0798 117.246 81.2423 116.979 82.302 116.465C83.3617 115.95 84.2907 115.202 85.0195 114.277C85.7481 113.351 86.2573 112.272 86.5085 111.121C86.7597 109.971 86.7466 108.778 86.4702 107.633L77.0201 68.4952C76.5383 66.505 75.4006 64.7348 73.7906 63.4695C72.1806 62.2045 70.1917 61.518 68.144 61.5206H8.78452C7.60446 61.5209 6.43964 61.7892 5.37845 62.3057C4.31737 62.8222 3.6008 63.1 2.52891 64.6C1.45701 66.1 1.42331 66.5125 1.17471 67.6661C0.92609 68.8197 0.943031 70.0149 1.22417 71.1611L10.8268 110.29C11.3119 112.276 12.4498 114.041 14.0579 115.302ZM14.0579 115.302L14.4312 114.826" stroke="#36393F" stroke-miterlimit="10"/>
<path d="M77.4844 24.6465C78.9622 25.4277 80.4076 25.8184 81.8203 25.8184C83.4609 25.8184 84.4212 25.2943 84.7012 24.2461C84.7923 23.901 84.8379 23.5039 84.8379 23.0547V22.6738C84.8379 22.2181 84.8053 21.8503 84.7402 21.5703C84.6751 21.2904 84.5384 21.0625 84.3301 20.8867C83.9915 20.5938 83.1908 20.3496 81.9277 20.1543C80.8014 19.9785 80.0234 19.8125 79.5938 19.6562C79.1641 19.5 78.8092 19.3307 78.5293 19.1484C78.2559 18.9596 78.0215 18.7253 77.8262 18.4453C77.4225 17.8594 77.2207 17.0488 77.2207 16.0137V15.916C77.2207 13.7676 78.1126 12.4818 79.8965 12.0586C80.4629 11.9284 81.1042 11.8633 81.8203 11.8633H81.9473C83.6204 11.8633 84.9876 12.1042 86.0488 12.5859L85.541 14.0801C84.2585 13.5267 83.0768 13.25 81.9961 13.25H81.9082C80.7168 13.25 79.8965 13.4746 79.4473 13.9238C79.0697 14.3014 78.8809 14.9557 78.8809 15.8867V15.9258C78.8809 16.987 79.1738 17.6836 79.7598 18.0156C80.1569 18.2305 80.8665 18.4193 81.8887 18.582C82.9173 18.7448 83.6823 18.8848 84.1836 19.002C84.6849 19.1126 85.1113 19.2982 85.4629 19.5586C86.1921 20.1055 86.5566 21.1439 86.5566 22.6738V22.8008C86.5566 25.138 85.6159 26.5312 83.7344 26.9805C83.1549 27.1237 82.6081 27.1953 82.0938 27.1953C81.5794 27.1953 81.1107 27.1758 80.6875 27.1367C80.2708 27.1042 79.8444 27.0423 79.4082 26.9512C78.3861 26.7428 77.5299 26.4303 76.8398 26.0137L77.4844 24.6465ZM94.8867 27.1953C92.569 27.1953 91.0391 26.4661 90.2969 25.0078C89.8607 24.1615 89.6035 23.0319 89.5254 21.6191C89.4928 20.9551 89.4766 20.2324 89.4766 19.4512C89.4766 18.6699 89.4993 17.931 89.5449 17.2344C89.5905 16.5312 89.6784 15.8965 89.8086 15.3301C89.9453 14.7637 90.1341 14.2656 90.375 13.8359C90.6224 13.3997 90.9447 13.0352 91.3418 12.7422C92.1621 12.1562 93.3438 11.8633 94.8867 11.8633H95.4922C97.9076 11.8633 99.4538 12.5143 100.131 13.8164C100.554 14.6302 100.792 15.763 100.844 17.2148C100.87 17.9245 100.883 18.6764 100.883 19.4707C100.883 20.2585 100.863 20.9876 100.824 21.6582C100.785 22.3223 100.704 22.9375 100.58 23.5039C100.456 24.0703 100.274 24.5814 100.033 25.0371C99.7988 25.4928 99.4798 25.8802 99.0762 26.1992C98.2428 26.8633 97.0482 27.1953 95.4922 27.1953H94.8867ZM95.4727 25.7891C96.1888 25.7891 96.7812 25.7109 97.25 25.5547C97.7253 25.3984 98.0996 25.125 98.373 24.7344C98.8809 24.0117 99.1348 22.625 99.1348 20.5742V19.5195C99.1348 18.5365 99.1087 17.6608 99.0566 16.8926C99.0046 16.1243 98.8646 15.4766 98.6367 14.9492C98.168 13.8555 97.1523 13.3086 95.5898 13.3086H94.7695C93.181 13.3086 92.1654 13.8197 91.7227 14.8418C91.4427 15.4928 91.2897 16.2611 91.2637 17.1465C91.2376 18.0319 91.2246 18.8229 91.2246 19.5195V20.5742C91.2246 22.4948 91.5111 23.849 92.084 24.6367C92.6374 25.4049 93.5716 25.7891 94.8867 25.7891H95.4727ZM104.955 12.1074C107.071 11.9447 108.848 11.8633 110.287 11.8633H110.482C112.051 11.8633 113.152 12.2148 113.783 12.918C114.311 13.5234 114.574 14.513 114.574 15.8867C114.574 17.6445 114.324 18.9531 113.822 19.8125C113.308 20.6849 112.455 21.2318 111.264 21.4531C111.485 21.7266 111.703 22.013 111.918 22.3125L112.494 23.1426L115.062 27H113.109L110.863 23.4648C110.238 22.5143 109.776 21.8861 109.477 21.5801H109.369C108.907 21.5736 108.461 21.5638 108.031 21.5508L106.615 21.4922V27H104.955V12.1074ZM106.615 20.1738C107.299 20.2064 108.373 20.2227 109.838 20.2227C111.042 20.2227 111.863 19.8841 112.299 19.207C112.67 18.6146 112.855 17.5794 112.855 16.1016C112.855 14.8581 112.579 14.0443 112.025 13.6602C111.7 13.4323 111.342 13.3053 110.951 13.2793C110.567 13.2533 110.229 13.2402 109.936 13.2402C109.649 13.2402 109.369 13.2435 109.096 13.25C108.829 13.25 108.562 13.2533 108.295 13.2598C108.028 13.2663 107.758 13.276 107.484 13.2891L106.615 13.3477V20.1738ZM118.295 12.1074C120.411 11.9447 122.188 11.8633 123.627 11.8633H123.822C125.391 11.8633 126.492 12.2148 127.123 12.918C127.65 13.5234 127.914 14.513 127.914 15.8867C127.914 17.6445 127.663 18.9531 127.162 19.8125C126.648 20.6849 125.795 21.2318 124.604 21.4531C124.825 21.7266 125.043 22.013 125.258 22.3125L125.834 23.1426L128.402 27H126.449L124.203 23.4648C123.578 22.5143 123.116 21.8861 122.816 21.5801H122.709C122.247 21.5736 121.801 21.5638 121.371 21.5508L119.955 21.4922V27H118.295V12.1074ZM119.955 20.1738C120.639 20.2064 121.713 20.2227 123.178 20.2227C124.382 20.2227 125.202 19.8841 125.639 19.207C126.01 18.6146 126.195 17.5794 126.195 16.1016C126.195 14.8581 125.919 14.0443 125.365 13.6602C125.04 13.4323 124.682 13.3053 124.291 13.2793C123.907 13.2533 123.568 13.2402 123.275 13.2402C122.989 13.2402 122.709 13.2435 122.436 13.25C122.169 13.25 121.902 13.2533 121.635 13.2598C121.368 13.2663 121.098 13.276 120.824 13.2891L119.955 13.3477V20.1738ZM134.33 21.4824L129.457 12.0586H131.273L134.467 18.4746L135.189 20.125L135.902 18.4453L139.027 12.0586H140.863L135.99 21.4824L135.98 27H134.34L134.33 21.4824ZM142.621 26.9902C142.504 26.8535 142.429 26.7038 142.396 26.541C142.364 26.3717 142.348 26.1602 142.348 25.9062C142.348 25.6458 142.364 25.4342 142.396 25.2715C142.436 25.1087 142.501 24.9818 142.592 24.8906C142.742 24.7214 142.986 24.6367 143.324 24.6367C143.663 24.6367 143.904 24.6562 144.047 24.6953C144.197 24.7279 144.314 24.793 144.398 24.8906C144.548 25.0534 144.623 25.3887 144.623 25.8965C144.623 26.4043 144.564 26.7266 144.447 26.8633C144.265 27.0781 143.946 27.1855 143.49 27.1855C143.035 27.1855 142.745 27.1204 142.621 26.9902ZM147.621 26.9902C147.504 26.8535 147.429 26.7038 147.396 26.541C147.364 26.3717 147.348 26.1602 147.348 25.9062C147.348 25.6458 147.364 25.4342 147.396 25.2715C147.436 25.1087 147.501 24.9818 147.592 24.8906C147.742 24.7214 147.986 24.6367 148.324 24.6367C148.663 24.6367 148.904 24.6562 149.047 24.6953C149.197 24.7279 149.314 24.793 149.398 24.8906C149.548 25.0534 149.623 25.3887 149.623 25.8965C149.623 26.4043 149.564 26.7266 149.447 26.8633C149.265 27.0781 148.946 27.1855 148.49 27.1855C148.035 27.1855 147.745 27.1204 147.621 26.9902ZM152.621 26.9902C152.504 26.8535 152.429 26.7038 152.396 26.541C152.364 26.3717 152.348 26.1602 152.348 25.9062C152.348 25.6458 152.364 25.4342 152.396 25.2715C152.436 25.1087 152.501 24.9818 152.592 24.8906C152.742 24.7214 152.986 24.6367 153.324 24.6367C153.663 24.6367 153.904 24.6562 154.047 24.6953C154.197 24.7279 154.314 24.793 154.398 24.8906C154.548 25.0534 154.623 25.3887 154.623 25.8965C154.623 26.4043 154.564 26.7266 154.447 26.8633C154.265 27.0781 153.946 27.1855 153.49 27.1855C153.035 27.1855 152.745 27.1204 152.621 26.9902Z" fill="black"/>
</svg>
