<svg width="14" height="15" viewBox="0 0 14 15" fill="none" xmlns="http://www.w3.org/2000/svg">
<rect width="13.8926" height="14.625" rx="2" fill="#DD8A3E"/>
<path d="M7.64648 8.91211H6.24023L6.04102 3H7.8457L7.64648 8.91211ZM6.94336 9.83789C7.22852 9.83789 7.45703 9.92188 7.62891 10.0898C7.80469 10.2578 7.89258 10.4727 7.89258 10.7344C7.89258 10.9922 7.80469 11.2051 7.62891 11.373C7.45703 11.541 7.22852 11.625 6.94336 11.625C6.66211 11.625 6.43359 11.541 6.25781 11.373C6.08594 11.2051 6 10.9922 6 10.7344C6 10.4766 6.08594 10.2637 6.25781 10.0957C6.43359 9.92383 6.66211 9.83789 6.94336 9.83789Z" fill="white"/>
</svg>
