<svg width="24" height="24" viewBox="0 0 24 24" fill="none" xmlns="http://www.w3.org/2000/svg">
<path d="M11.74 13.36L14.14 7.71L13.06 5.5H10.5V4H14L14.73 5.5H21.75L20.75 9H16.44L17.11 10.37C17.8693 10.0605 18.6931 9.94241 19.5089 10.0262C20.3246 10.1099 21.1072 10.3929 21.7878 10.8503C22.4685 11.3077 23.0262 11.9254 23.412 12.649C23.7977 13.3726 23.9996 14.18 24 15C24 17.76 21.76 20 19 20C16.24 20 14 17.76 14 15C14 13.45 14.71 12.06 15.82 11.15L15 9.5L12.25 16H9.89996C9.71075 16.9269 9.26246 17.7811 8.60716 18.4634C7.95185 19.1458 7.11643 19.6282 6.1979 19.8546C5.27938 20.0811 4.31545 20.0423 3.41808 19.7428C2.52071 19.4433 1.72672 18.8954 1.12832 18.1627C0.529922 17.4299 0.151678 16.5425 0.0375179 15.6034C-0.0766424 14.6642 0.0779656 13.712 0.483385 12.8573C0.888805 12.0025 1.5284 11.2803 2.32788 10.7745C3.12737 10.2688 4.05393 10.0002 4.99996 10C7.58996 10 9.71996 11.97 9.99996 14.5H10.58L8.29996 9H7.49996C7.08996 9 6.74996 8.66 6.74996 8.25C6.74996 7.84 7.08996 7.5 7.49996 7.5H10.25C10.66 7.5 11 7.84 11 8.25C11 8.66 10.66 9 10.25 9H9.96996L11.74 13.36ZM4.99996 11.5C3.06996 11.5 1.49996 13.07 1.49996 15C1.50178 15.8404 1.80561 16.6522 2.35605 17.2873C2.90648 17.9224 3.66686 18.3385 4.49851 18.4598C5.33015 18.581 6.17767 18.3993 6.88651 17.9477C7.59535 17.4962 8.11829 16.8049 8.35996 16H3.99996V14.5H8.46996C8.21996 12.8 6.75996 11.5 4.99996 11.5ZM19 11.5C18.57 11.5 18.15 11.58 17.77 11.72L19.7 15.68L18.35 16.34L16.5 12.55C15.88 13.18 15.5 14.05 15.5 15C15.5 16.93 17.07 18.5 19 18.5C20.93 18.5 22.5 16.93 22.5 15C22.5 13.07 20.93 11.5 19 11.5Z" fill="#545963"/>
</svg>
