<svg width="30" height="26" viewBox="0 0 30 26" fill="none" xmlns="http://www.w3.org/2000/svg">
<path fill-rule="evenodd" clip-rule="evenodd" d="M0.999819 13C0.999819 13.2155 1.08542 13.4222 1.23779 13.5746C1.39017 13.7269 1.59683 13.8125 1.81232 13.8125L25.7139 13.8125L20.6001 18.9248C20.5245 19.0003 20.4646 19.09 20.4237 19.1887C20.3828 19.2874 20.3618 19.3932 20.3618 19.5C20.3618 19.6069 20.3828 19.7127 20.4237 19.8114C20.4646 19.9101 20.5245 19.9997 20.6001 20.0753C20.6756 20.1508 20.7653 20.2108 20.864 20.2516C20.9627 20.2925 21.0685 20.3136 21.1753 20.3136C21.2821 20.3136 21.3879 20.2925 21.4866 20.2516C21.5853 20.2108 21.675 20.1508 21.7506 20.0753L28.2506 13.5753C28.3262 13.4998 28.3863 13.4102 28.4272 13.3114C28.4682 13.2127 28.4893 13.1069 28.4893 13C28.4893 12.8932 28.4682 12.7874 28.4272 12.6886C28.3863 12.5899 28.3262 12.5003 28.2506 12.4248L21.7506 5.92479C21.675 5.84925 21.5853 5.78933 21.4866 5.74844C21.3879 5.70756 21.2821 5.68652 21.1753 5.68652C21.0685 5.68652 20.9627 5.70756 20.864 5.74844C20.7653 5.78933 20.6756 5.84925 20.6001 5.92479C20.5245 6.00034 20.4646 6.09002 20.4237 6.18872C20.3828 6.28742 20.3618 6.39321 20.3618 6.50004C20.3618 6.60688 20.3828 6.71267 20.4237 6.81137C20.4646 6.91007 20.5245 6.99975 20.6001 7.07529L25.7139 12.1875L1.81232 12.1875C1.59683 12.1875 1.39017 12.2731 1.23779 12.4255C1.08542 12.5779 0.999819 12.7846 0.999819 13Z" fill="#545963"/>
</svg>
