<svg width="24" height="24" viewBox="0 0 24 24" fill="none" xmlns="http://www.w3.org/2000/svg">
<path d="M18 4H6C4.89543 4 4 4.89543 4 6V18C4 19.1046 4.89543 20 6 20H18C19.1046 20 20 19.1046 20 18V6C20 4.89543 19.1046 4 18 4Z" stroke="#545963" stroke-width="2" stroke-linecap="round" stroke-linejoin="round"/>
<path d="M15.384 7.848V9.804H13.572V7.848H15.384ZM15.696 14.772C16.836 14.772 17.208 14.28 17.364 12.708C16.98 12.624 16.428 12.396 16.116 12.168C16.068 13.26 15.972 13.5 15.576 13.5H14.124C13.632 13.5 13.572 13.416 13.572 12.888V11.076H16.776V6.588H12.192V12.888C12.192 14.388 12.588 14.772 13.908 14.772H15.696ZM10.032 13.296H11.736V12.06H10.032V10.764H11.844V9.528H9.768V8.4H11.544V7.176H9.768V6H8.436V7.176H6.648V8.4H8.436V9.528H6.324V10.764H8.724V14.496C8.412 14.148 8.172 13.704 7.98 13.116C8.004 12.612 8.028 12.096 8.04 11.568L6.732 11.472C6.708 13.524 6.588 15.516 6 16.728C6.312 16.86 6.936 17.172 7.188 17.34C7.452 16.752 7.632 16.044 7.752 15.24C8.688 16.584 10.116 16.872 12.348 16.872H16.98C17.064 16.452 17.304 15.792 17.52 15.468C16.44 15.516 13.26 15.516 12.348 15.504C11.424 15.504 10.668 15.456 10.032 15.276V13.296Z" fill="#545963"/>
</svg>
