<svg width="24" height="24" viewBox="0 0 24 24" fill="none" xmlns="http://www.w3.org/2000/svg">
<path d="M18 4H6C4.89543 4 4 4.89543 4 6V18C4 19.1046 4.89543 20 6 20H18C19.1046 20 20 19.1046 20 18V6C20 4.89543 19.1046 4 18 4Z" stroke="#545963" stroke-width="2" stroke-linecap="round" stroke-linejoin="round"/>
<path d="M10.836 8.028H8.484L9.276 7.596C9.096 7.152 8.724 6.492 8.4 6L7.296 6.516C7.56 6.972 7.884 7.572 8.064 8.028H6V9.156H10.836V8.028ZM10.272 10.776V9.696H6.504V10.776H10.272ZM10.296 11.304H6.504V12.384H10.296V11.304ZM9.084 14.1V15.444H7.728V14.1H9.084ZM10.32 12.96H6.528V17.1H7.728V16.596H10.32V12.96ZM17.016 9.072V7.824H13.152C13.332 7.344 13.512 6.864 13.656 6.372L12.276 6.048C11.904 7.476 11.22 8.916 10.392 9.816C10.704 10.02 11.28 10.428 11.544 10.668C11.904 10.224 12.24 9.684 12.564 9.072H17.016ZM13.332 15.756C12.924 15.756 12.684 15.66 12.684 15.384C12.684 15 12.936 14.424 16.332 11.076C16.392 11.016 16.452 10.896 16.488 10.812L15.54 10.368L15.204 10.404H11.784V11.628H13.812C11.34 14.316 11.196 14.976 11.196 15.612C11.196 16.536 11.844 17.172 13.332 17.172H15.336C16.56 17.172 17.076 16.716 17.208 14.58C16.812 14.508 16.356 14.34 15.96 14.124C15.912 15.576 15.768 15.756 15.396 15.756H13.332Z" fill="#545963"/>
</svg>
