<svg width="30" height="26" viewBox="0 0 30 26" fill="none" xmlns="http://www.w3.org/2000/svg">
<path fill-rule="evenodd" clip-rule="evenodd" d="M7.05669 13.8125C7.05814 13.8125 7.0596 13.8125 7.06105 13.8125L26.2247 13.8125L21.1108 18.9248C21.0353 19.0003 20.9753 19.09 20.9344 19.1887C20.8936 19.2874 20.8725 19.3932 20.8725 19.5C20.8725 19.6068 20.8936 19.7126 20.9344 19.8113C20.9753 19.91 21.0353 19.9997 21.1108 20.0753C21.1863 20.1508 21.276 20.2107 21.3747 20.2516C21.4734 20.2925 21.5792 20.3135 21.686 20.3135C21.7929 20.3135 21.8987 20.2925 21.9974 20.2516C22.0961 20.2107 22.1858 20.1508 22.2613 20.0753L28.7613 13.5753C28.837 13.4998 28.897 13.4101 28.938 13.3114C28.9789 13.2127 29 13.1069 29 13C29 12.8931 28.9789 12.7873 28.938 12.6886C28.897 12.5899 28.837 12.5002 28.7613 12.4248L22.2613 5.92476C22.1858 5.84922 22.0961 5.7893 21.9974 5.74841C21.8987 5.70753 21.7929 5.68649 21.686 5.68649C21.5792 5.68649 21.4734 5.70753 21.3747 5.74841C21.276 5.7893 21.1863 5.84922 21.1108 5.92476C21.0353 6.00031 20.9753 6.08999 20.9344 6.18869C20.8936 6.28739 20.8725 6.39318 20.8725 6.50001C20.8725 6.60685 20.8936 6.71263 20.9344 6.81134C20.9753 6.91004 21.0353 6.99972 21.1108 7.07526L26.2247 12.1875L22.9434 12.1875C22.9419 12.1875 22.9404 12.1875 22.939 12.1875L3.77533 12.1875L8.8892 7.07525C8.96474 6.99971 9.02467 6.91003 9.06555 6.81132C9.10644 6.71262 9.12748 6.60683 9.12748 6.5C9.12748 6.39317 9.10644 6.28738 9.06555 6.18868C9.02467 6.08998 8.96474 6.00029 8.8892 5.92475C8.81366 5.84921 8.72398 5.78928 8.62527 5.7484C8.52657 5.70752 8.42079 5.68647 8.31395 5.68647C8.20712 5.68647 8.10133 5.70752 8.00263 5.7484C7.90393 5.78928 7.81424 5.84921 7.7387 5.92475L1.2387 12.4247C1.16304 12.5002 1.10301 12.5899 1.06204 12.6886C1.02108 12.7873 0.999999 12.8931 0.999999 13C0.999999 13.1069 1.02108 13.2127 1.06204 13.3114C1.10301 13.4101 1.16304 13.4998 1.2387 13.5752L7.7387 20.0752C7.81424 20.1508 7.90393 20.2107 8.00263 20.2516C8.10133 20.2925 8.20712 20.3135 8.31395 20.3135C8.42079 20.3135 8.52657 20.2925 8.62527 20.2516C8.72398 20.2107 8.81366 20.1508 8.8892 20.0752C8.96474 19.9997 9.02467 19.91 9.06555 19.8113C9.10644 19.7126 9.12748 19.6068 9.12748 19.5C9.12748 19.3932 9.10644 19.2874 9.06555 19.1887C9.02467 19.09 8.96474 19.0003 8.8892 18.9247L3.77533 13.8125L7.05669 13.8125Z" fill="#545963"/>
</svg>
