<svg width="32" height="39" viewBox="0 0 32 39" fill="none" xmlns="http://www.w3.org/2000/svg">
<g filter="url(#filter0_d_91_2090)">
<path d="M25.3333 2.66669H6.66667C5.95942 2.66669 5.28115 2.94764 4.78105 3.44774C4.28095 3.94783 4 4.62611 4 5.33335V24C4 25.4667 5.2 26.6667 6.66667 26.6667H12L15.0533 29.72C15.5733 30.24 16.4133 30.24 16.9333 29.72L20 26.6667H25.3333C26.8 26.6667 28 25.4667 28 24V5.33335C28 3.86669 26.8 2.66669 25.3333 2.66669Z" fill="#DADD3E"/>
<path d="M12.3536 26.3131L12.2071 26.1667H12H6.66667C5.47614 26.1667 4.5 25.1905 4.5 24V5.33335C4.5 4.75872 4.72827 4.20762 5.1346 3.80129C5.54093 3.39496 6.09203 3.16669 6.66667 3.16669H25.3333C26.5239 3.16669 27.5 4.14283 27.5 5.33335V24C27.5 25.1905 26.5239 26.1667 25.3333 26.1667H20H19.7935L19.6472 26.3124L16.5806 29.3657L16.5798 29.3665C16.255 29.6912 15.7316 29.6912 15.4069 29.3665L12.3536 26.3131Z" stroke="white"/>
</g>
<rect x="8.53345" y="6.93335" width="14.9333" height="14.9333" rx="4" fill="white"/>
<path d="M15.232 11.416H12.88L13.672 10.984C13.492 10.54 13.12 9.88 12.796 9.388L11.692 9.904C11.956 10.36 12.28 10.96 12.46 11.416H10.396V12.544H15.232V11.416ZM14.668 14.164V13.084H10.9V14.164H14.668ZM14.692 14.692H10.9V15.772H14.692V14.692ZM13.48 17.488V18.832H12.124V17.488H13.48ZM14.716 16.348H10.924V20.488H12.124V19.984H14.716V16.348ZM21.412 12.46V11.212H17.548C17.728 10.732 17.908 10.252 18.052 9.76L16.672 9.436C16.3 10.864 15.616 12.304 14.788 13.204C15.1 13.408 15.676 13.816 15.94 14.056C16.3 13.612 16.636 13.072 16.96 12.46H21.412ZM17.728 19.144C17.32 19.144 17.08 19.048 17.08 18.772C17.08 18.388 17.332 17.812 20.728 14.464C20.788 14.404 20.848 14.284 20.884 14.2L19.936 13.756L19.6 13.792H16.18V15.016H18.208C15.736 17.704 15.592 18.364 15.592 19C15.592 19.924 16.24 20.56 17.728 20.56H19.732C20.956 20.56 21.472 20.104 21.604 17.968C21.208 17.896 20.752 17.728 20.356 17.512C20.308 18.964 20.164 19.144 19.792 19.144H17.728Z" fill="#1F1F1F"/>
<defs>
<filter id="filter0_d_91_2090" x="0" y="2.66669" width="32" height="35.4434" filterUnits="userSpaceOnUse" color-interpolation-filters="sRGB">
<feFlood flood-opacity="0" result="BackgroundImageFix"/>
<feColorMatrix in="SourceAlpha" type="matrix" values="0 0 0 0 0 0 0 0 0 0 0 0 0 0 0 0 0 0 127 0" result="hardAlpha"/>
<feOffset dy="4"/>
<feGaussianBlur stdDeviation="2"/>
<feComposite in2="hardAlpha" operator="out"/>
<feColorMatrix type="matrix" values="0 0 0 0 0 0 0 0 0 0 0 0 0 0 0 0 0 0 0.25 0"/>
<feBlend mode="normal" in2="BackgroundImageFix" result="effect1_dropShadow_91_2090"/>
<feBlend mode="normal" in="SourceGraphic" in2="effect1_dropShadow_91_2090" result="shape"/>
</filter>
</defs>
</svg>
