<svg width="32" height="39" viewBox="0 0 32 39" fill="none" xmlns="http://www.w3.org/2000/svg">
<g filter="url(#filter0_d_91_2089)">
<path d="M25.3333 2.66669H6.66667C5.95942 2.66669 5.28115 2.94764 4.78105 3.44774C4.28095 3.94783 4 4.62611 4 5.33335V24C4 25.4667 5.2 26.6667 6.66667 26.6667H12L15.0533 29.72C15.5733 30.24 16.4133 30.24 16.9333 29.72L20 26.6667H25.3333C26.8 26.6667 28 25.4667 28 24V5.33335C28 3.86669 26.8 2.66669 25.3333 2.66669Z" fill="#DADD3E"/>
<path d="M12.3536 26.3131L12.2071 26.1667H12H6.66667C5.47614 26.1667 4.5 25.1905 4.5 24V5.33335C4.5 4.75872 4.72827 4.20762 5.1346 3.80129C5.54093 3.39496 6.09203 3.16669 6.66667 3.16669H25.3333C26.5239 3.16669 27.5 4.14283 27.5 5.33335V24C27.5 25.1905 26.5239 26.1667 25.3333 26.1667H20H19.7935L19.6472 26.3124L16.5806 29.3657L16.5798 29.3665C16.255 29.6912 15.7316 29.6912 15.4069 29.3665L12.3536 26.3131Z" stroke="white"/>
</g>
<rect x="8.53345" y="6.93335" width="14.9333" height="14.9333" rx="4" fill="white"/>
<path d="M19.6001 11.308V13.264H17.7881V11.308H19.6001ZM19.9121 18.232C21.0521 18.232 21.4241 17.74 21.5801 16.168C21.1961 16.084 20.6441 15.856 20.3321 15.628C20.2841 16.72 20.1881 16.96 19.7921 16.96H18.3401C17.8481 16.96 17.7881 16.876 17.7881 16.348V14.536H20.9921V10.048H16.4081V16.348C16.4081 17.848 16.8041 18.232 18.1241 18.232H19.9121ZM14.2481 16.756H15.9521V15.52H14.2481V14.224H16.0601V12.988H13.9841V11.86H15.7601V10.636H13.9841V9.46002H12.6521V10.636H10.8641V11.86H12.6521V12.988H10.5401V14.224H12.9401V17.956C12.6281 17.608 12.3881 17.164 12.1961 16.576C12.2201 16.072 12.2441 15.556 12.2561 15.028L10.9481 14.932C10.9241 16.984 10.8041 18.976 10.2161 20.188C10.5281 20.32 11.1521 20.632 11.4041 20.8C11.6681 20.212 11.8481 19.504 11.9681 18.7C12.9041 20.044 14.3321 20.332 16.5641 20.332H21.1961C21.2801 19.912 21.5201 19.252 21.7361 18.928C20.6561 18.976 17.4761 18.976 16.5641 18.964C15.6401 18.964 14.8841 18.916 14.2481 18.736V16.756Z" fill="#1F1F1F"/>
<defs>
<filter id="filter0_d_91_2089" x="0" y="2.66669" width="32" height="35.4434" filterUnits="userSpaceOnUse" color-interpolation-filters="sRGB">
<feFlood flood-opacity="0" result="BackgroundImageFix"/>
<feColorMatrix in="SourceAlpha" type="matrix" values="0 0 0 0 0 0 0 0 0 0 0 0 0 0 0 0 0 0 127 0" result="hardAlpha"/>
<feOffset dy="4"/>
<feGaussianBlur stdDeviation="2"/>
<feComposite in2="hardAlpha" operator="out"/>
<feColorMatrix type="matrix" values="0 0 0 0 0 0 0 0 0 0 0 0 0 0 0 0 0 0 0.25 0"/>
<feBlend mode="normal" in2="BackgroundImageFix" result="effect1_dropShadow_91_2089"/>
<feBlend mode="normal" in="SourceGraphic" in2="effect1_dropShadow_91_2089" result="shape"/>
</filter>
</defs>
</svg>
