<svg width="11" height="13" viewBox="0 0 11 13" fill="none" xmlns="http://www.w3.org/2000/svg">
<path d="M11 5.14813C11.0017 4.35754 10.8081 3.57724 10.4342 2.86798C10.0603 2.15872 9.51619 1.53962 8.84428 1.0589C8.17237 0.578176 7.39075 0.248789 6.56028 0.0963762C5.72981 -0.0560365 4.87291 -0.027363 4.05624 0.180169C3.23957 0.387701 2.48519 0.768493 1.85183 1.2929C1.21846 1.8173 0.72319 2.47117 0.404584 3.2036C0.085979 3.93604 -0.0473669 4.72728 0.0149126 5.51573C0.0771922 6.30418 0.333415 7.06856 0.763653 7.74939C0.979641 8.08085 1.24191 8.31863 1.53504 8.67171L4.75173 12.6348C4.84461 12.7484 4.96426 12.8404 5.10138 12.9037C5.23851 12.9671 5.38943 13 5.5424 13C5.69537 13 5.84628 12.9671 5.98341 12.9037C6.12054 12.8404 6.24018 12.7484 6.33306 12.6348L9.47261 8.75098C9.74724 8.43416 10.0047 8.10469 10.244 7.76379C10.7423 6.97093 11.0034 6.06754 11 5.14813ZM5.52312 7.3891C5.04406 7.3891 4.57577 7.2564 4.17745 7.00778C3.77913 6.75917 3.46868 6.4058 3.28535 5.99236C3.10202 5.57893 3.05406 5.124 3.14752 4.6851C3.24098 4.2462 3.47166 3.84304 3.8104 3.52661C4.14915 3.21018 4.58073 2.9947 5.05058 2.9074C5.52043 2.82009 6.00745 2.8649 6.45004 3.03615C6.89263 3.2074 7.27091 3.4974 7.53706 3.86948C7.80321 4.24156 7.94528 4.67901 7.94528 5.12651C7.94528 5.72659 7.69007 6.30208 7.23583 6.7264C6.78159 7.15072 6.16551 7.3891 5.52312 7.3891Z" fill="#AB99E6"/>
</svg>
