<svg width="37" height="41" viewBox="0 0 37 41" fill="none" xmlns="http://www.w3.org/2000/svg">
<g filter="url(#filter0_d_201_7692)">
<path d="M8.24853 4.20423C10.9399 1.53974 14.5789 0.0300978 18.3818 0.000445186C22.1847 -0.0292075 25.8472 1.4235 28.5805 4.04569C31.3138 6.66788 32.8992 10.2498 32.9954 14.0199C33.0915 17.7901 31.6906 21.4468 29.0944 24.2026L28.7612 24.5446C27.237 26.0561 24.6883 28.5258 21.1102 31.9552C20.4113 32.6254 19.4771 33 18.5049 33C17.5327 33 16.5985 32.6254 15.8996 31.9552L9.48623 25.7621C9.01314 25.2995 8.60002 24.8931 8.24853 24.5446C6.90159 23.2089 5.83313 21.6233 5.10416 19.8781C4.3752 18.133 4 16.2625 4 14.3736C4 12.4846 4.3752 10.6142 5.10416 8.86903C5.83313 7.12388 6.90159 5.53987 8.24853 4.20423Z" fill="#DADD3E"/>
<path d="M20.7642 31.5942L20.7641 31.5943C20.1587 32.1748 19.3487 32.5 18.5049 32.5C17.6614 32.5 16.8517 32.1751 16.2463 31.595C16.2461 31.5947 16.2458 31.5945 16.2456 31.5943L9.83577 25.4046C9.83542 25.4042 9.83506 25.4039 9.8347 25.4035C9.36265 24.942 8.95077 24.5368 8.60061 24.1896L8.60059 24.1895C7.30028 22.9001 6.26903 21.3696 5.56553 19.6854C4.86203 18.0012 4.5 16.1963 4.5 14.3736C4.5 12.5509 4.86203 10.7459 5.56553 9.06175C6.26892 7.37784 7.30001 5.84901 8.60031 4.55955C11.1986 1.98722 14.7126 0.529071 18.3857 0.50043C22.0588 0.471789 25.5955 1.87497 28.2343 4.4065C30.873 6.9379 32.4028 10.3949 32.4955 14.0327C32.5882 17.669 31.2377 21.1968 28.7333 23.8567L28.4062 24.1925C26.8848 25.7011 24.3398 28.1672 20.7642 31.5942Z" stroke="white"/>
</g>
<path d="M21.9672 9C22.1305 9.00002 22.2882 9.05997 22.4102 9.16849C22.5322 9.277 22.6102 9.42653 22.6293 9.5887L22.634 9.66671V20.334C22.6338 20.504 22.5687 20.6674 22.452 20.791C22.3354 20.9145 22.176 20.9889 22.0063 20.9989C21.8367 21.0088 21.6696 20.9536 21.5393 20.8446C21.409 20.7355 21.3253 20.5808 21.3052 20.412L21.3005 20.334V17.0005H20.6338C20.4705 17.0005 20.3129 16.9405 20.1909 16.832C20.0689 16.7235 19.9909 16.574 19.9718 16.4118L19.9671 16.3338V12.3335C19.9671 10.8601 20.9672 9 21.9672 9ZM17.967 9C18.1303 9.00002 18.2879 9.05997 18.4099 9.16849C18.532 9.277 18.6099 9.42653 18.629 9.5887L18.6337 9.66671V13.0002C18.6336 13.5915 18.4371 14.166 18.0751 14.6335C17.7131 15.101 17.206 15.435 16.6336 15.5831V20.334C16.6334 20.504 16.5683 20.6674 16.4517 20.791C16.335 20.9145 16.1756 20.9889 16.006 20.9989C15.8363 21.0088 15.6693 20.9536 15.539 20.8446C15.4087 20.7355 15.3249 20.5808 15.3048 20.412L15.3002 20.334V15.5831C14.7504 15.441 14.2604 15.1272 13.9013 14.6874C13.5421 14.2475 13.3327 13.7046 13.3034 13.1376L13.3 13.0002V9.66671C13.3002 9.49678 13.3653 9.33333 13.482 9.20977C13.5986 9.0862 13.758 9.01184 13.9277 9.00189C14.0973 8.99193 14.2644 9.04712 14.3947 9.15619C14.525 9.26525 14.6087 9.41996 14.6288 9.5887L14.6335 9.66671V13.0002C14.6335 13.2343 14.6951 13.4642 14.8121 13.6669C14.9291 13.8696 15.0975 14.038 15.3002 14.155V9.66671C15.3004 9.49678 15.3654 9.33333 15.4821 9.20977C15.5987 9.0862 15.7582 9.01184 15.9278 9.00189C16.0974 8.99193 16.2645 9.04712 16.3948 9.15619C16.5251 9.26525 16.6089 9.41996 16.6289 9.5887L16.6336 9.66671L16.6343 14.155C16.8203 14.0474 16.9776 13.8965 17.0928 13.7151C17.2079 13.5336 17.2775 13.3271 17.2956 13.1129L17.3003 13.0002V9.66671C17.3003 9.48989 17.3705 9.32031 17.4956 9.19527C17.6206 9.07024 17.7902 9 17.967 9Z" fill="#545963"/>
<defs>
<filter id="filter0_d_201_7692" x="0" y="0" width="37" height="41" filterUnits="userSpaceOnUse" color-interpolation-filters="sRGB">
<feFlood flood-opacity="0" result="BackgroundImageFix"/>
<feColorMatrix in="SourceAlpha" type="matrix" values="0 0 0 0 0 0 0 0 0 0 0 0 0 0 0 0 0 0 127 0" result="hardAlpha"/>
<feOffset dy="4"/>
<feGaussianBlur stdDeviation="2"/>
<feComposite in2="hardAlpha" operator="out"/>
<feColorMatrix type="matrix" values="0 0 0 0 0 0 0 0 0 0 0 0 0 0 0 0 0 0 0.25 0"/>
<feBlend mode="normal" in2="BackgroundImageFix" result="effect1_dropShadow_201_7692"/>
<feBlend mode="normal" in="SourceGraphic" in2="effect1_dropShadow_201_7692" result="shape"/>
</filter>
</defs>
</svg>
