<svg width="24" height="24" viewBox="0 0 24 24" fill="none" xmlns="http://www.w3.org/2000/svg">
<path d="M11.75 14.875C12.5788 14.875 13.3737 14.5458 13.9597 13.9597C14.5458 13.3737 14.875 12.5788 14.875 11.75C14.875 10.9212 14.5458 10.1263 13.9597 9.54029C13.3737 8.95424 12.5788 8.625 11.75 8.625C10.9212 8.625 10.1263 8.95424 9.54029 9.54029C8.95424 10.1263 8.625 10.9212 8.625 11.75C8.625 12.5788 8.95424 13.3737 9.54029 13.9597C10.1263 14.5458 10.9212 14.875 11.75 14.875ZM12.375 3.625C12.375 3.45924 12.375 3 12.375 3C12.375 3 11.9158 3 11.75 3C11.5842 3 11.125 3 11.125 3C11.125 3 11.125 3.45924 11.125 3.625V5.53125C9.69068 5.67586 8.35039 6.31167 7.33103 7.33103C6.31167 8.35039 5.67586 9.69068 5.53125 11.125H3.625C3.45924 11.125 3 11.125 3 11.125C3 11.125 3 11.5842 3 11.75C3 11.9158 3 12.375 3 12.375C3 12.375 3.45924 12.375 3.625 12.375H5.53125C5.67559 13.8095 6.31127 15.1501 7.33066 16.1697C8.35005 17.1894 9.69049 17.8253 11.125 17.97V19.875C11.125 20.0408 11.125 20.5 11.125 20.5C11.125 20.5 11.5842 20.5 11.75 20.5C11.9158 20.5 12.375 20.5 12.375 20.5C12.375 20.5 12.375 20.0408 12.375 19.875V17.97C13.8095 17.8253 15.15 17.1894 16.1693 16.1697C17.1887 15.1501 17.8244 13.8095 17.9688 12.375H19.875C20.0408 12.375 20.5 12.375 20.5 12.375C20.5 12.375 20.5 11.9158 20.5 11.75C20.5 11.5842 20.5 11.125 20.5 11.125C20.5 11.125 20.0408 11.125 19.875 11.125H17.9688C17.8241 9.69068 17.1883 8.35039 16.169 7.33103C15.1496 6.31167 13.8093 5.67586 12.375 5.53125V3.625ZM11.75 16.75C10.4239 16.75 9.15215 16.2232 8.21447 15.2855C7.27678 14.3479 6.75 13.0761 6.75 11.75C6.75 10.4239 7.27678 9.15215 8.21447 8.21447C9.15215 7.27678 10.4239 6.75 11.75 6.75C13.0761 6.75 14.3479 7.27678 15.2855 8.21447C16.2232 9.15215 16.75 10.4239 16.75 11.75C16.75 13.0761 16.2232 14.3479 15.2855 15.2855C14.3479 16.2232 13.0761 16.75 11.75 16.75Z" fill="#36393F"/>
</svg>
