<svg width="37" height="41" viewBox="0 0 37 41" fill="none" xmlns="http://www.w3.org/2000/svg">
<g filter="url(#filter0_d_81_2438)">
<path d="M8.24853 4.20423C10.9399 1.53974 14.5789 0.0300978 18.3818 0.000445186C22.1847 -0.0292075 25.8472 1.4235 28.5805 4.04569C31.3138 6.66788 32.8992 10.2498 32.9954 14.0199C33.0915 17.7901 31.6906 21.4468 29.0944 24.2026L28.7612 24.5446C27.237 26.0561 24.6883 28.5258 21.1102 31.9552C20.4113 32.6254 19.4771 33 18.5049 33C17.5327 33 16.5985 32.6254 15.8996 31.9552L9.48623 25.7621C9.01314 25.2995 8.60002 24.8931 8.24853 24.5446C6.90159 23.2089 5.83313 21.6233 5.10416 19.8781C4.3752 18.133 4 16.2625 4 14.3736C4 12.4846 4.3752 10.6142 5.10416 8.86903C5.83313 7.12388 6.90159 5.53987 8.24853 4.20423Z" fill="#DADD3E"/>
<path d="M20.7642 31.5942L20.7641 31.5943C20.1587 32.1748 19.3487 32.5 18.5049 32.5C17.6614 32.5 16.8517 32.1751 16.2463 31.595C16.2461 31.5947 16.2458 31.5945 16.2456 31.5943L9.83577 25.4046C9.83542 25.4042 9.83506 25.4039 9.8347 25.4035C9.36265 24.942 8.95077 24.5368 8.60061 24.1896L8.60059 24.1895C7.30028 22.9001 6.26903 21.3696 5.56553 19.6854C4.86203 18.0012 4.5 16.1963 4.5 14.3736C4.5 12.5509 4.86203 10.7459 5.56553 9.06175C6.26892 7.37784 7.30001 5.84901 8.60031 4.55955C11.1986 1.98722 14.7126 0.529071 18.3857 0.50043C22.0588 0.471789 25.5955 1.87497 28.2343 4.4065C30.873 6.9379 32.4028 10.3949 32.4955 14.0327C32.5882 17.669 31.2377 21.1968 28.7333 23.8567L28.4062 24.1925C26.8848 25.7011 24.3398 28.1672 20.7642 31.5942Z" stroke="white"/>
</g>
<ellipse cx="18.5" cy="14.5605" rx="10.875" ry="10.9203" fill="white"/>
<path d="M18.2901 15.5918L20.2235 11.3071L19.3534 9.63113H17.2911V8.49359H20.1107L20.6988 9.63113H26.354L25.5484 12.2854H22.0763L22.6161 13.3243C23.2278 13.0896 23.8915 13.0001 24.5486 13.0636C25.2057 13.1271 25.8362 13.3417 26.3845 13.6886C26.9328 14.0354 27.3821 14.5038 27.6929 15.0526C28.0036 15.6014 28.1663 16.2136 28.1666 16.8355C28.1666 18.9286 26.3621 20.6273 24.1386 20.6273C21.9152 20.6273 20.1107 18.9286 20.1107 16.8355C20.1107 15.6601 20.6827 14.6059 21.5769 13.9158L20.9163 12.6645L18.7009 17.5939H16.8078C16.6553 18.2968 16.2942 18.9446 15.7663 19.462C15.2384 19.9795 14.5654 20.3453 13.8254 20.517C13.0855 20.6888 12.3089 20.6594 11.586 20.4323C10.8631 20.2051 10.2235 19.7896 9.74143 19.2339C9.25937 18.6783 8.95466 18.0053 8.86269 17.2931C8.77072 16.5809 8.89527 15.8588 9.22188 15.2105C9.54848 14.5623 10.0637 14.0147 10.7078 13.6311C11.3518 13.2476 12.0983 13.0439 12.8604 13.0437C14.9469 13.0437 16.6628 14.5377 16.8883 16.4563H17.3556L15.5188 12.2854H14.8744C14.5441 12.2854 14.2702 12.0275 14.2702 11.7166C14.2702 11.4057 14.5441 11.1478 14.8744 11.1478H17.0897C17.42 11.1478 17.6939 11.4057 17.6939 11.7166C17.6939 12.0275 17.42 12.2854 17.0897 12.2854H16.8642L18.2901 15.5918ZM12.8604 14.1813C11.3056 14.1813 10.0408 15.3719 10.0408 16.8355C10.0423 17.4729 10.287 18.0885 10.7305 18.5701C11.1739 19.0518 11.7864 19.3673 12.4564 19.4592C13.1264 19.5512 13.8091 19.4134 14.3802 19.0709C14.9512 18.7285 15.3725 18.2043 15.5672 17.5939H12.0548V16.4563H15.6558C15.4544 15.1671 14.2782 14.1813 12.8604 14.1813ZM24.1386 14.1813C23.7922 14.1813 23.4539 14.2419 23.1478 14.3481L24.7025 17.3512L23.615 17.8517L22.1247 14.9775C21.6252 15.4553 21.3191 16.1151 21.3191 16.8355C21.3191 18.2991 22.5838 19.4898 24.1386 19.4898C25.6934 19.4898 26.9582 18.2991 26.9582 16.8355C26.9582 15.3719 25.6934 14.1813 24.1386 14.1813Z" fill="#545963"/>
<defs>
<filter id="filter0_d_81_2438" x="0" y="0" width="37" height="41" filterUnits="userSpaceOnUse" color-interpolation-filters="sRGB">
<feFlood flood-opacity="0" result="BackgroundImageFix"/>
<feColorMatrix in="SourceAlpha" type="matrix" values="0 0 0 0 0 0 0 0 0 0 0 0 0 0 0 0 0 0 127 0" result="hardAlpha"/>
<feOffset dy="4"/>
<feGaussianBlur stdDeviation="2"/>
<feComposite in2="hardAlpha" operator="out"/>
<feColorMatrix type="matrix" values="0 0 0 0 0 0 0 0 0 0 0 0 0 0 0 0 0 0 0.25 0"/>
<feBlend mode="normal" in2="BackgroundImageFix" result="effect1_dropShadow_81_2438"/>
<feBlend mode="normal" in="SourceGraphic" in2="effect1_dropShadow_81_2438" result="shape"/>
</filter>
</defs>
</svg>
