<svg width="37" height="41" viewBox="0 0 37 41" fill="none" xmlns="http://www.w3.org/2000/svg">
<g filter="url(#filter0_d_201_7722)">
<path d="M8.24853 4.20423C10.9399 1.53974 14.5789 0.0300978 18.3818 0.000445186C22.1847 -0.0292075 25.8472 1.4235 28.5805 4.04569C31.3138 6.66788 32.8992 10.2498 32.9954 14.0199C33.0915 17.7901 31.6906 21.4468 29.0944 24.2026L28.7612 24.5446C27.237 26.0561 24.6883 28.5258 21.1102 31.9552C20.4113 32.6254 19.4771 33 18.5049 33C17.5327 33 16.5985 32.6254 15.8996 31.9552L9.48623 25.7621C9.01314 25.2995 8.60002 24.8931 8.24853 24.5446C6.90159 23.2089 5.83313 21.6233 5.10416 19.8781C4.3752 18.133 4 16.2625 4 14.3736C4 12.4846 4.3752 10.6142 5.10416 8.86903C5.83313 7.12388 6.90159 5.53987 8.24853 4.20423Z" fill="#DADD3E"/>
<path d="M20.7642 31.5942L20.7641 31.5943C20.1587 32.1748 19.3487 32.5 18.5049 32.5C17.6614 32.5 16.8517 32.1751 16.2463 31.595C16.2461 31.5947 16.2458 31.5945 16.2456 31.5943L9.83577 25.4046C9.83542 25.4042 9.83506 25.4039 9.8347 25.4035C9.36265 24.942 8.95077 24.5368 8.60061 24.1896L8.60059 24.1895C7.30028 22.9001 6.26903 21.3696 5.56553 19.6854C4.86203 18.0012 4.5 16.1963 4.5 14.3736C4.5 12.5509 4.86203 10.7459 5.56553 9.06175C6.26892 7.37784 7.30001 5.84901 8.60031 4.55955C11.1986 1.98722 14.7126 0.529071 18.3857 0.50043C22.0588 0.471789 25.5955 1.87497 28.2343 4.4065C30.873 6.9379 32.4028 10.3949 32.4955 14.0327C32.5882 17.669 31.2377 21.1968 28.7333 23.8567L28.4062 24.1925C26.8848 25.7011 24.3398 28.1672 20.7642 31.5942Z" stroke="white"/>
</g>
<ellipse cx="18.5" cy="14.5605" rx="10.875" ry="10.9203" fill="white"/>
<path fill-rule="evenodd" clip-rule="evenodd" d="M15.4345 10.6994L15.2119 11.3882H14.541C13.9466 11.3882 13.3765 11.6243 12.9562 12.0446C12.5359 12.4649 12.2998 13.035 12.2998 13.6294V18.1118C12.2998 18.7062 12.5359 19.2762 12.9562 19.6965C13.3765 20.1168 13.9466 20.353 14.541 20.353H22.7587C23.3531 20.353 23.9232 20.1168 24.3435 19.6965C24.7638 19.2762 24.9999 18.7062 24.9999 18.1118V13.6294C24.9999 13.035 24.7638 12.4649 24.3435 12.0446C23.9232 11.6243 23.3531 11.3882 22.7587 11.3882H22.0871L21.8652 10.6994C21.7196 10.2483 21.4346 9.85506 21.0514 9.57613C20.6682 9.29719 20.2064 9.14694 19.7324 9.14697H17.5666C17.0926 9.14694 16.6308 9.29719 16.2476 9.57613C15.8644 9.85506 15.5794 10.2483 15.4337 10.6994H15.4345ZM14.541 12.8823H16.2996L16.8569 11.1588C16.9054 11.0085 17.0003 10.8774 17.1279 10.7844C17.2556 10.6914 17.4094 10.6412 17.5674 10.6411H19.7324C19.8903 10.6412 20.0442 10.6914 20.1718 10.7844C20.2995 10.8774 20.3943 11.0085 20.4428 11.1588L20.9994 12.8823H22.7587C22.9569 12.8823 23.1469 12.961 23.287 13.1011C23.4271 13.2412 23.5058 13.4312 23.5058 13.6294V18.1118C23.5058 18.3099 23.4271 18.4999 23.287 18.64C23.1469 18.7801 22.9569 18.8588 22.7587 18.8588H14.541C14.3429 18.8588 14.1529 18.7801 14.0127 18.64C13.8726 18.4999 13.7939 18.3099 13.7939 18.1118V13.6294C13.7939 13.4312 13.8726 13.2412 14.0127 13.1011C14.1529 12.961 14.3429 12.8823 14.541 12.8823Z" fill="#545963"/>
<path fill-rule="evenodd" clip-rule="evenodd" d="M16.0352 15.4971C16.0352 15.8404 16.1028 16.1804 16.2342 16.4977C16.3656 16.8149 16.5582 17.1032 16.801 17.346C17.0438 17.5888 17.332 17.7814 17.6493 17.9128C17.9665 18.0442 18.3065 18.1118 18.6499 18.1118C18.9933 18.1118 19.3333 18.0442 19.6505 17.9128C19.9677 17.7814 20.256 17.5888 20.4988 17.346C20.7416 17.1032 20.9342 16.8149 21.0656 16.4977C21.197 16.1804 21.2646 15.8404 21.2646 15.4971C21.2646 14.8036 20.9891 14.1385 20.4988 13.6482C20.0084 13.1578 19.3434 12.8823 18.6499 12.8823C17.9564 12.8823 17.2914 13.1578 16.801 13.6482C16.3106 14.1385 16.0352 14.8036 16.0352 15.4971ZM19.7705 15.4971C19.7705 15.7943 19.6524 16.0793 19.4423 16.2894C19.2321 16.4996 18.9471 16.6177 18.6499 16.6177C18.3527 16.6177 18.0677 16.4996 17.8575 16.2894C17.6474 16.0793 17.5293 15.7943 17.5293 15.4971C17.5293 15.1999 17.6474 14.9148 17.8575 14.7047C18.0677 14.4945 18.3527 14.3765 18.6499 14.3765C18.9471 14.3765 19.2321 14.4945 19.4423 14.7047C19.6524 14.9148 19.7705 15.1999 19.7705 15.4971Z" fill="#545963"/>
<defs>
<filter id="filter0_d_201_7722" x="0" y="0" width="37" height="41" filterUnits="userSpaceOnUse" color-interpolation-filters="sRGB">
<feFlood flood-opacity="0" result="BackgroundImageFix"/>
<feColorMatrix in="SourceAlpha" type="matrix" values="0 0 0 0 0 0 0 0 0 0 0 0 0 0 0 0 0 0 127 0" result="hardAlpha"/>
<feOffset dy="4"/>
<feGaussianBlur stdDeviation="2"/>
<feComposite in2="hardAlpha" operator="out"/>
<feColorMatrix type="matrix" values="0 0 0 0 0 0 0 0 0 0 0 0 0 0 0 0 0 0 0.25 0"/>
<feBlend mode="normal" in2="BackgroundImageFix" result="effect1_dropShadow_201_7722"/>
<feBlend mode="normal" in="SourceGraphic" in2="effect1_dropShadow_201_7722" result="shape"/>
</filter>
</defs>
</svg>
