<svg width="320" height="130" viewBox="0 0 320 130" fill="none" xmlns="http://www.w3.org/2000/svg">
<path d="M94.0262 63.6901L95.4099 15.41H118.93C126.771 15.41 130.578 19.3284 130.354 27.1651L130.125 35.1419C129.958 40.9728 127.683 44.6346 123.3 46.1274L130.767 61.591L129.517 63.6901H120.837L112.778 46.897H104.588L104.106 63.6901H94.0262ZM104.848 37.8008H117.869C119.269 37.8008 119.989 37.1011 120.029 35.7016L120.29 26.6054C120.33 25.206 119.65 24.5062 118.25 24.5062H105.229L104.848 37.8008Z" fill="white"/>
<path d="M139.418 63.6901L140.802 15.41H163.622C171.462 15.41 175.27 19.3284 175.046 27.1651L174.925 31.3634C174.88 32.9494 174.374 34.3022 173.409 35.4218L170.875 38.3606L173.744 40.8095C175.248 42.069 175.965 43.9349 175.894 46.4072L175.736 51.935C175.511 59.7718 171.479 63.6901 163.638 63.6901H139.418ZM149.759 54.5939H163.479C164.879 54.5939 165.599 53.8942 165.639 52.4947L165.84 45.4976C165.88 44.0982 165.2 43.3985 163.8 43.3985H150.08L149.759 54.5939ZM150.34 34.3022H162.661C164.061 34.3022 164.781 33.6025 164.821 32.2031L164.981 26.6054C165.021 25.206 164.341 24.5062 162.941 24.5062H150.621L150.34 34.3022Z" fill="white"/>
<path d="M180.657 61.8009L196.337 15.41H211.737L224.758 61.8009L223.444 63.6901H215.044L212.384 53.8942H193.484L190.263 63.6901H181.863L180.657 61.8009ZM196.475 44.7979H209.915L204.336 24.5062H203.216L196.475 44.7979Z" fill="white"/>
<path d="M231.705 63.6901L233.089 15.41H244.009L262.281 47.107L263.19 15.41H273.27L271.886 63.6901H260.966L242.694 31.9932L241.786 63.6901H231.705Z" fill="white"/>
<path d="M319.7 79.2758L270.063 85.8131L270.065 77.8125L319.7 79.2758Z" fill="#DADD3E"/>
<path d="M313.501 88.5067L270.063 94.8087L270.064 86.8086L313.501 88.5067Z" fill="#DADD3E"/>
<path d="M308.4 97.2835L270.062 101.805L270.063 95.8044L308.4 97.2835Z" fill="#DADD3E"/>
<path d="M303.647 104.075L270.061 108.801L270.062 102.801L303.647 104.075Z" fill="#DADD3E"/>
<path d="M299.289 111.498L270.061 115.798L270.062 109.798L299.289 111.498Z" fill="#DADD3E"/>
<path d="M293.948 118.749L270.06 122.794L270.061 116.795L293.948 118.749Z" fill="#DADD3E"/>
<path d="M290.407 124.427L279.521 125.701L270.06 122.792L290.407 124.427Z" fill="#DADD3E"/>
<path d="M20.0972 114.044L20.1006 89.2695C20.1017 81.4312 24.0223 77.5119 31.8624 77.5116L50.5525 77.511L55.242 81.15L55.2413 86.6088L32.2811 86.6096C30.8811 86.6097 30.181 87.3096 30.1808 88.7093L30.1772 114.604C30.177 116.003 30.8769 116.703 32.2769 116.703L55.237 116.702L55.2363 122.161L50.5457 125.8L31.8556 125.801C24.0155 125.801 20.0961 121.882 20.0972 114.044Z" fill="white"/>
<path d="M64.4775 125.8L64.4843 77.5104L74.5643 77.5101L74.5617 96.4059L92.4818 96.4052L92.4845 77.5094L102.565 77.509L102.558 125.798L92.4777 125.799L92.4805 105.503L74.5604 105.504L74.5575 125.799L64.4775 125.8Z" fill="white"/>
<path d="M109.559 123.909L123.915 77.5082L139.315 77.5076L153.659 123.907L152.399 125.797L143.999 125.797L141.06 115.999L122.16 116L119.218 125.798L110.818 125.798L109.559 123.909ZM124.891 106.902L138.331 106.901L132.174 86.6059L131.054 86.606L124.891 106.902Z" fill="white"/>
<path d="M158.56 122.157L158.561 116.698L180.261 116.698C181.661 116.697 182.361 115.998 182.362 114.598L182.362 109.489C182.362 108.183 181.779 107.413 180.613 107.18L166.963 104.451C161.363 103.331 158.564 99.5754 158.564 93.1835L158.565 89.2644C158.566 81.4261 162.487 77.5068 170.327 77.5065L186.357 77.5059L191.046 81.1449L191.046 86.6037L170.745 86.6045C169.345 86.6045 168.645 87.3044 168.645 88.7041L168.644 93.2531C168.644 94.5595 169.228 95.3293 170.394 95.5625L184.044 98.2914C189.644 99.411 192.443 103.167 192.442 109.559L192.442 114.038C192.441 121.876 188.52 125.795 180.68 125.796L163.25 125.796L158.56 122.157Z" fill="white"/>
<path d="M201.812 125.795L201.819 77.5053L234.86 77.5041L234.858 86.6021L211.898 86.6029L211.897 96.4008L232.757 96.4L232.756 105.498L211.895 105.499L211.894 116.696L234.854 116.695L234.853 125.793L201.812 125.795Z" fill="white"/>
<path d="M244.059 125.793L244.066 77.5037L267.586 77.5029C275.426 77.5026 279.345 81.4216 279.344 89.2599L279.343 97.2381C279.342 103.07 277.172 106.733 272.832 108.226L280.739 123.692L279.549 125.792L270.869 125.792L262.331 108.996L254.141 108.996L254.139 125.793L244.059 125.793ZM254.143 99.8985L267.163 99.898C268.563 99.8979 269.263 99.198 269.263 97.7984L269.264 88.7003C269.265 87.3007 268.565 86.6008 267.165 86.6009L254.144 86.6014L254.143 99.8985Z" fill="white"/>
<path fill-rule="evenodd" clip-rule="evenodd" d="M31.7225 66.7581L31.7324 66.7661L31.7424 66.774C34.2194 68.735 37.322 68.4171 40.0553 67.3845L40.0719 67.3783L40.0883 67.3719C42.8006 66.3105 45.7365 64.5965 48.8797 62.3204C52.0314 60.0382 55.312 57.2648 58.7212 54.0154L58.73 54.007L58.7388 53.9985C62.1323 50.711 65.4175 47.2404 68.5946 43.5872C71.8287 39.9284 74.8035 36.2106 77.5172 32.4335C80.2872 28.6505 82.5362 25.0833 84.2388 21.736C85.9834 18.4074 87.1511 15.3256 87.5845 12.5392L87.586 12.5295C88.0484 9.49052 87.4366 6.39895 84.664 4.51757L83.9013 4H82.9795C81.8152 4 81.0458 4.6412 80.8654 4.79155L80.8637 4.79299C80.5643 5.04243 80.3293 5.31512 80.1682 5.51654L80.1389 5.55313L80.1108 5.59062C80.0554 5.6645 80.016 5.71384 79.9913 5.74351L79.9798 5.75704L79.503 6.2339L79.2783 6.89816C78.1456 10.2471 76.5549 13.8109 74.4878 17.5922L74.4804 17.6058L74.4731 17.6195C72.451 21.4109 70.1204 25.1869 67.4781 28.947L67.4702 28.9582L67.4625 28.9695C64.859 32.747 62.1035 36.3699 59.196 39.8384C56.2906 43.3046 53.4264 46.3695 50.6049 49.0399L50.5951 49.0491L50.5853 49.0585C47.8151 51.7281 45.2141 53.877 42.783 55.5308C40.4174 57.1233 38.6321 57.8777 37.3658 58.0972C36.887 58.1612 36.6582 58.0935 36.5711 58.0574C36.5045 58.0297 36.3831 57.9663 36.2197 57.7388C36.1046 57.5239 35.9288 57.038 35.8522 56.1089C35.7711 55.1261 35.8149 53.8218 36.0324 52.1536C36.4636 48.8481 37.6415 44.2728 39.6487 38.3541L39.6512 38.3467C41.6319 32.4555 44.6228 25.1075 48.6468 16.2815C48.6625 16.252 48.6913 16.1983 48.7382 16.1123C48.811 15.9788 48.911 15.7976 49.0395 15.5663L49.0711 15.5093L49.2505 15.1507C49.2494 15.1529 49.2472 15.1572 49.2512 15.1492L49.3702 14.9112L49.3722 14.9071L49.3734 14.9049L49.3921 14.8675C49.4057 14.8402 49.3804 14.8909 49.394 14.8636L49.4093 14.833L49.4487 14.7542L49.4492 14.7533L49.4508 14.7501L49.4841 14.6833L49.5216 14.6084L49.5222 14.6072L49.5228 14.6061L49.5239 14.6039L49.5324 14.5867L49.533 14.5857L49.5335 14.5847L49.5345 14.5826L49.5482 14.5552L49.5491 14.5534L49.5549 14.5417L49.561 14.5295L49.5618 14.5281L49.5684 14.5147L49.7868 14.0781L49.8556 13.5961C49.9105 13.212 49.9649 12.8038 50.0189 12.3721C50.0945 11.7671 50.1012 11.1598 50.0389 10.5544C50.0166 9.84482 49.8698 9.10415 49.5285 8.39129C49.0394 7.30949 48.2016 6.56946 47.2899 6.11359C45.8368 5.38704 44.5856 6.09955 44.42 6.19388L44.4131 6.19779C44.0704 6.39199 43.8312 6.6136 43.7304 6.70981C43.4983 6.93131 43.2971 7.17788 43.1561 7.35811C42.8491 7.75034 42.4725 8.2897 42.0459 8.92965L42.0214 8.96635L41.998 9.00375C41.1807 10.3114 40.165 12.0505 38.9568 14.2041L38.9431 14.2286L38.9298 14.2534C37.767 16.4204 36.4775 18.9209 35.0619 21.7521L35.0519 21.7721L35.0421 21.7923C33.6562 24.6708 32.3269 27.7023 31.0535 30.8858L31.0486 30.8981L31.0438 30.9104C29.8082 34.0799 28.7345 37.3279 27.8223 40.6539C26.8907 43.998 26.3051 47.2416 26.0809 50.38C25.852 53.5842 26.103 56.5953 26.8895 59.3784C27.7296 62.3512 29.3457 64.8435 31.7225 66.7581ZM39.3093 20C40.1133 18.429 40.868 16.9863 41.5733 15.6719C41.8166 15.2381 42.0514 14.8225 42.2775 14.4253C42.0514 14.8225 41.8166 15.2381 41.5733 15.6719C40.868 16.9863 40.1133 18.429 39.3093 20ZM44.0808 11.3432C44.181 11.1781 44.2784 11.0191 44.3729 10.8661L44.3661 10.877C44.3207 10.9506 44.2747 11.0255 44.228 11.1018L44.2138 11.1249C44.1701 11.1964 44.1257 11.2692 44.0808 11.3432ZM44.4382 10.7605C44.4428 10.7531 44.4474 10.7457 44.452 10.7382L44.4447 10.75L44.4382 10.7605ZM44.5066 10.6506C44.5184 10.6315 44.5303 10.6126 44.542 10.5938C44.5941 10.5156 44.6448 10.44 44.694 10.367C44.6448 10.44 44.5941 10.5156 44.542 10.5938L44.5135 10.6395L44.5066 10.6506Z" fill="#DADD3E"/>
</svg>
