<svg width="120" height="49" viewBox="0 0 120 49" fill="none" xmlns="http://www.w3.org/2000/svg">
<path d="M35.2599 23.8838L35.7788 5.77875H44.599C47.5391 5.77875 48.967 7.24814 48.8828 10.1869L48.7971 13.1782C48.7344 15.3648 47.8813 16.738 46.2377 17.2978L49.0378 23.0966L48.569 23.8838H45.3139L42.2918 17.5864H39.2205L39.04 23.8838H35.2599ZM39.3183 14.1753H44.2009C44.7259 14.1753 44.9959 13.9129 45.0109 13.3881L45.1087 9.97702C45.1237 9.45224 44.8688 9.18985 44.3438 9.18985H39.4611L39.3183 14.1753Z" fill="white"/>
<path d="M52.2818 23.8838L52.8007 5.77875H61.3584C64.2985 5.77875 65.7264 7.24814 65.6422 10.1869L65.597 11.7613C65.58 12.356 65.3905 12.8633 65.0284 13.2832L64.0781 14.3852L65.1543 15.3036C65.7182 15.7759 65.9869 16.4756 65.9604 17.4027L65.901 19.4756C65.8167 22.4144 64.3046 23.8838 61.3645 23.8838H52.2818ZM56.1597 20.4727H61.3048C61.8298 20.4727 62.0998 20.2103 62.1149 19.6855L62.1901 17.0616C62.2051 16.5368 61.9501 16.2744 61.4251 16.2744H56.28L56.1597 20.4727ZM56.3777 12.8633H60.9978C61.5229 12.8633 61.7929 12.6009 61.8079 12.0762L61.8681 9.97702C61.8831 9.45224 61.6281 9.18985 61.1031 9.18985H56.483L56.3777 12.8633Z" fill="white"/>
<path d="M67.7465 23.1754L73.6265 5.77875H79.4016L84.2844 23.1754L83.7916 23.8838H80.6415L79.6443 20.2103H72.5566L71.3488 23.8838H68.1987L67.7465 23.1754ZM73.6781 16.7992H78.7182L76.6263 9.18985H76.2063L73.6781 16.7992Z" fill="white"/>
<path d="M86.8896 23.8838L87.4084 5.77875H91.5035L98.3555 17.6651L98.6962 5.77875H102.476L101.957 23.8838H97.8623L91.0103 11.9974L90.6696 23.8838H86.8896Z" fill="white"/>
<path d="M119.887 29.7284L101.274 32.1799L101.274 29.1797L119.887 29.7284Z" fill="#DADD3E"/>
<path d="M117.563 33.19L101.273 35.5532L101.274 32.5532L117.563 33.19Z" fill="#DADD3E"/>
<path d="M115.65 36.4814L101.273 38.1769L101.274 35.9267L115.65 36.4814Z" fill="#DADD3E"/>
<path d="M113.868 39.028L101.273 40.8006L101.273 38.5505L113.868 39.028Z" fill="#DADD3E"/>
<path d="M112.233 41.8118L101.273 43.4242L101.273 41.1743L112.233 41.8118Z" fill="#DADD3E"/>
<path d="M110.23 44.531L101.272 46.0478L101.273 43.7981L110.23 44.531Z" fill="#DADD3E"/>
<path d="M108.903 46.6603L104.821 47.1379L101.273 46.0471L108.903 46.6603Z" fill="#DADD3E"/>
<path d="M7.5364 42.7665L7.53771 33.476C7.53812 30.5367 9.00834 29.067 11.9484 29.0669L18.9572 29.0666L20.7157 30.4312L20.7154 32.4783L12.1054 32.4786C11.5804 32.4786 11.3178 32.7411 11.3178 33.266L11.3164 42.9763C11.3163 43.5012 11.5788 43.7636 12.1038 43.7636L20.7139 43.7633L20.7136 45.8104L18.9546 47.1751L11.9458 47.1754C9.00579 47.1755 7.53599 45.7059 7.5364 42.7665Z" fill="white"/>
<path d="M24.179 47.1749L24.1816 29.0664L27.9616 29.0663L27.9606 36.1522L34.6806 36.152L34.6816 29.066L38.4617 29.0659L38.4591 47.1744L34.6791 47.1745L34.6802 39.5637L27.9601 39.564L27.959 47.1748L24.179 47.1749Z" fill="white"/>
<path d="M41.0845 46.4657L46.4682 29.0656L52.2432 29.0654L57.6221 46.4651L57.1495 47.1737L53.9994 47.1738L52.8975 43.4997L45.8099 43.4999L44.7069 47.1742L41.5569 47.1743L41.0845 46.4657ZM46.8341 40.0881L51.8742 40.0879L49.5652 32.4772L49.1452 32.4772L46.8341 40.0881Z" fill="white"/>
<path d="M59.4601 45.8089L59.4604 43.7619L67.5979 43.7616C68.1229 43.7615 68.3855 43.4991 68.3856 42.9742L68.3858 41.0584C68.3859 40.5685 68.1672 40.2798 67.7297 40.1923L62.611 39.169C60.5111 38.7492 59.4613 37.3408 59.4616 34.9438L59.4618 33.4741C59.4622 30.5348 60.9325 29.065 63.8725 29.0649L69.8838 29.0647L71.6423 30.4293L71.6421 32.4764L64.0295 32.4767C63.5045 32.4767 63.242 32.7391 63.2419 33.264L63.2416 34.9699C63.2416 35.4598 63.4603 35.7485 63.8978 35.8359L69.0164 36.8593C71.1164 37.2791 72.1662 38.6875 72.1659 41.0845L72.1656 42.7641C72.1652 45.7035 70.695 47.1732 67.755 47.1733L61.2187 47.1735L59.4601 45.8089Z" fill="white"/>
<path d="M75.6796 47.173L75.6822 29.0645L88.0723 29.064L88.0718 32.4758L79.4617 32.4761L79.4612 36.1503L87.2838 36.15L87.2833 39.5617L79.4607 39.562L79.4602 43.7611L88.0702 43.7608L88.0697 47.1725L75.6796 47.173Z" fill="white"/>
<path d="M91.522 47.1724L91.5246 29.0639L100.345 29.0636C103.285 29.0635 104.754 30.5331 104.754 33.4724L104.754 36.4643C104.753 38.6513 103.939 40.0248 102.312 40.5847L105.277 46.3846L104.831 47.1719L101.576 47.172L98.3742 40.8735L95.303 40.8737L95.3021 47.1723L91.522 47.1724ZM95.3034 37.4619L100.186 37.4617C100.711 37.4617 100.974 37.1993 100.974 36.6744L100.974 33.2626C100.974 32.7377 100.712 32.4753 100.187 32.4753L95.3041 32.4755L95.3034 37.4619Z" fill="white"/>
<path fill-rule="evenodd" clip-rule="evenodd" d="M11.896 25.0343L11.8998 25.0373L11.9035 25.0403C12.8324 25.7756 13.9958 25.6564 15.0208 25.2692L15.027 25.2669L15.0332 25.2644C16.0503 24.8664 17.1513 24.2237 18.33 23.3702C19.5119 22.5143 20.7421 21.4743 22.0205 20.2558L22.0239 20.2526L22.0271 20.2494C23.2997 19.0166 24.5317 17.7152 25.7231 16.3452C26.9359 14.9731 28.0514 13.579 29.0691 12.1626C30.1078 10.7439 30.9512 9.40624 31.5897 8.151C32.2439 6.90279 32.6817 5.74709 32.8443 4.70222L32.8448 4.69854C33.0183 3.55894 32.7888 2.39961 31.7491 1.69409L31.4631 1.5H31.1174C30.6808 1.5 30.3923 1.74045 30.3246 1.79683L30.324 1.79737C30.2117 1.89091 30.1236 1.99317 30.0632 2.0687L30.0522 2.08243L30.0416 2.09648C30.0209 2.12419 30.0061 2.14269 29.9968 2.15382L29.9925 2.15889L29.8137 2.33771L29.7295 2.58681C29.3047 3.84268 28.7082 5.1791 27.933 6.59709L27.9302 6.60218L27.9275 6.60731C27.1692 8.02909 26.2952 9.44507 25.3044 10.8551L25.3014 10.8593L25.2985 10.8635C24.3222 12.2801 23.2889 13.6387 22.1986 14.9394C21.1091 16.2392 20.035 17.3886 18.9769 18.39L18.9732 18.3934L18.9696 18.3969C17.9307 19.398 16.9554 20.2039 16.0437 20.824C15.1566 21.4212 14.4871 21.7042 14.0123 21.7865C13.8327 21.8104 13.7469 21.7851 13.7142 21.7715C13.6893 21.7611 13.6437 21.7374 13.5825 21.6521C13.5393 21.5715 13.4734 21.3892 13.4447 21.0408C13.4143 20.6723 13.4307 20.1832 13.5123 19.5576C13.6739 18.3181 14.1157 16.6023 14.8684 14.3828L14.8693 14.38C15.6121 12.1708 16.7336 9.41529 18.2427 6.10556C18.2485 6.0945 18.2593 6.07435 18.2769 6.04213C18.3042 5.99206 18.3417 5.9241 18.3899 5.83736L18.4018 5.816L18.4684 5.68268L18.469 5.68152L18.4693 5.68096L18.5139 5.5917L18.5147 5.59017L18.5213 5.57696C18.5214 5.57684 18.5218 5.57598 18.5228 5.57385L18.5286 5.56236L18.5435 5.53249L18.5441 5.53127L18.5566 5.50625L18.5707 5.47814L18.5709 5.47772L18.5711 5.47729L18.5715 5.47646L18.5748 5.47002L18.575 5.46963L18.5751 5.46925L18.5755 5.46848L18.5807 5.45819L18.581 5.45754L18.5832 5.45315L18.5855 5.44858L18.5858 5.44804L18.5883 5.44303L18.6701 5.27928L18.696 5.09855C18.7165 4.9545 18.7369 4.80143 18.7572 4.63954C18.7855 4.41267 18.788 4.18491 18.7647 3.95789C18.7563 3.69181 18.7013 3.41406 18.5733 3.14673C18.3899 2.74106 18.0757 2.46355 17.7338 2.2926C17.1889 2.02014 16.7197 2.28733 16.6576 2.3227L16.655 2.32417C16.5265 2.397 16.4368 2.4801 16.399 2.51618C16.312 2.59924 16.2365 2.69171 16.1836 2.75929C16.0685 2.90638 15.9273 3.10864 15.7673 3.34862L15.7581 3.36238L15.7494 3.37641C15.4429 3.86678 15.062 4.51893 14.6089 5.32655L14.6037 5.33574L14.5988 5.34503C14.1627 6.15765 13.6791 7.09535 13.1483 8.15704L13.1445 8.16455L13.1409 8.17211C12.6212 9.25156 12.1227 10.3884 11.6451 11.5822L11.6433 11.5868L11.6415 11.5914C11.1782 12.78 10.7755 13.998 10.4335 15.2452C10.0841 16.4992 9.86449 17.7156 9.78043 18.8925C9.6946 20.0941 9.7887 21.2232 10.0836 22.2669C10.3987 23.3817 11.0047 24.3163 11.896 25.0343ZM13.76 9.50001C13.8901 9.21604 14.0217 8.9361 14.1545 8.66016C14.6819 7.60547 15.1604 6.67773 15.5901 5.87695C15.9559 5.22486 16.2699 4.68286 16.5321 4.25094L16.5304 4.25369C16.2685 4.68516 15.9551 5.22624 15.5901 5.87695C15.1604 6.67773 14.6819 7.60547 14.1545 8.66016C14.0217 8.9361 13.8901 9.21605 13.76 9.50001ZM16.5785 4.17472C16.5802 4.17194 16.5819 4.16917 16.5836 4.1664L16.5803 4.17183L16.5785 4.17472ZM30.5553 3.6186C30.6402 3.39291 30.7201 3.16914 30.7952 2.94727C30.76 3.05104 30.7239 3.15523 30.6866 3.25984C30.6442 3.37889 30.6005 3.49847 30.5553 3.6186ZM16.6928 3.98963L16.6926 3.9898L16.6928 3.98963ZM16.6697 4.02661L16.6669 4.03125L16.6643 4.03537C16.6661 4.03245 16.6679 4.02953 16.6697 4.02661ZM16.6401 4.07446L16.6374 4.07889L16.6358 4.08138C16.6373 4.07907 16.6387 4.07676 16.6401 4.07446Z" fill="#DADD3E"/>
</svg>
