<svg width="24" height="24" viewBox="0 0 24 24" fill="none" xmlns="http://www.w3.org/2000/svg">
<path d="M20.0525 19.2129L15.5685 14.7289C16.646 13.4353 17.1833 11.7761 17.0687 10.0964C16.954 8.41675 16.1962 6.84593 14.9529 5.71076C13.7096 4.57558 12.0765 3.96345 10.3933 4.00169C8.71018 4.03993 7.10657 4.72561 5.91609 5.91609C4.72561 7.10657 4.03993 8.71018 4.00169 10.3933C3.96345 12.0765 4.57558 13.7096 5.71076 14.9529C6.84593 16.1962 8.41675 16.954 10.0964 17.0687C11.7761 17.1833 13.4353 16.646 14.7289 15.5685L19.2129 20.0525L20.0525 19.2129ZM5.20873 10.5525C5.20873 9.49559 5.52214 8.46243 6.10932 7.58365C6.6965 6.70488 7.53108 6.01996 8.50752 5.6155C9.48396 5.21105 10.5584 5.10522 11.595 5.31141C12.6316 5.5176 13.5837 6.02654 14.3311 6.77388C15.0784 7.52122 15.5874 8.47338 15.7936 9.50997C15.9997 10.5466 15.8939 11.621 15.4895 12.5974C15.085 13.5739 14.4001 14.4085 13.5213 14.9956C12.6425 15.5828 11.6094 15.8962 10.5525 15.8962C9.13571 15.8947 7.77742 15.3312 6.77562 14.3293C5.77381 13.3275 5.2103 11.9693 5.20873 10.5525Z" fill="#545963"/>
</svg>
