<svg width="30" height="30" viewBox="0 0 30 30" fill="none" xmlns="http://www.w3.org/2000/svg">
<path fill-rule="evenodd" clip-rule="evenodd" d="M20.4738 18.8329L26.6606 25.0196C26.878 25.2372 27.0001 25.5323 27 25.8399C26.9999 26.1475 26.8776 26.4425 26.66 26.66C26.4424 26.8774 26.1473 26.9995 25.8397 26.9994C25.532 26.9993 25.237 26.877 25.0196 26.6594L18.8329 20.4727C16.9834 21.9052 14.6577 22.5793 12.3289 22.3579C10.0001 22.1365 7.84309 21.0362 6.2967 19.2809C4.75031 17.5256 3.9307 15.2471 4.0046 12.909C4.07849 10.5708 5.04035 8.34864 6.6945 6.6945C8.34864 5.04035 10.5708 4.07849 12.909 4.0046C15.2471 3.9307 17.5256 4.75031 19.2809 6.2967C21.0362 7.84309 22.1365 10.0001 22.3579 12.3289C22.5793 14.6577 21.9051 16.9834 20.4727 18.8329H20.4738ZM13.2004 20.099C15.0303 20.099 16.7853 19.372 18.0792 18.0781C19.3732 16.7841 20.1001 15.0292 20.1001 13.1993C20.1001 11.3694 19.3732 9.61441 18.0792 8.32047C16.7853 7.02653 15.0303 6.2996 13.2004 6.2996C11.3705 6.2996 9.61556 7.02653 8.32162 8.32047C7.02768 9.61441 6.30075 11.3694 6.30075 13.1993C6.30075 15.0292 7.02768 16.7841 8.32162 18.0781C9.61556 19.372 11.3705 20.099 13.2004 20.099Z" fill="#DADD3E"/>
</svg>
