<svg width="18" height="18" viewBox="0 0 18 18" fill="none" xmlns="http://www.w3.org/2000/svg">
<path d="M15.0394 14.4097L11.6764 11.0467C12.4845 10.0765 12.8875 8.83208 12.8015 7.57232C12.7155 6.31256 12.1472 5.13445 11.2147 4.28307C10.2822 3.43169 9.05736 2.97258 7.795 3.00127C6.53263 3.02995 5.32993 3.54421 4.43707 4.43707C3.54421 5.32993 3.02995 6.53263 3.00127 7.795C2.97258 9.05736 3.43169 10.2822 4.28307 11.2147C5.13445 12.1472 6.31256 12.7155 7.57232 12.8015C8.83208 12.8875 10.0765 12.4845 11.0467 11.6764L14.4097 15.0394L15.0394 14.4097ZM3.90655 7.91436C3.90655 7.12169 4.1416 6.34682 4.58199 5.68774C5.02237 5.02866 5.64831 4.51497 6.38064 4.21163C7.11297 3.90828 7.91881 3.82892 8.69625 3.98356C9.47369 4.1382 10.1878 4.51991 10.7483 5.08041C11.3088 5.64091 11.6905 6.35504 11.8452 7.13248C11.9998 7.90992 11.9204 8.71575 11.6171 9.44809C11.3138 10.1804 10.8001 10.8064 10.141 11.2467C9.4819 11.6871 8.70703 11.9222 7.91436 11.9222C6.85179 11.921 5.83307 11.4984 5.08171 10.747C4.33036 9.99566 3.90773 8.97694 3.90655 7.91436Z" fill="#545963"/>
</svg>
